<svg xmlns="http://www.w3.org/2000/svg" width="519" height="339" viewBox="0 0 519 339">
    <defs>
        <linearGradient id="a" x1="49.998%" x2="49.998%" y1="100.027%" y2=".025%">
            <stop offset="0%" stop-color="#3D386B"/>
            <stop offset="100%" stop-color="#211E39"/>
        </linearGradient>
        <linearGradient id="b" x1="49.998%" x2="49.998%" y1="100%" y2=".024%">
            <stop offset="0%" stop-color="#3D386B"/>
            <stop offset="100%" stop-color="#211E39"/>
        </linearGradient>
        <linearGradient id="c" x1="-.02%" x2="100.012%" y1="49.967%" y2="49.967%">
            <stop offset="0%" stop-color="#3D386B"/>
            <stop offset="100%" stop-color="#211E39"/>
        </linearGradient>
        <linearGradient id="d" x1="49.998%" x2="49.998%" y1="100%" y2=".024%">
            <stop offset="0%" stop-color="#FCFCFE"/>
            <stop offset="96.99%" stop-color="#C6C6EF"/>
        </linearGradient>
        <linearGradient id="e" x1="-.02%" x2="100.012%" y1="49.967%" y2="49.967%">
            <stop offset="0%" stop-color="#FCFCFE"/>
            <stop offset="96.99%" stop-color="#C6C6EF"/>
        </linearGradient>
        <linearGradient id="f" x1="50.004%" x2="50.004%" y1="100.018%" y2="-.017%">
            <stop offset="0%" stop-color="#A4AECF"/>
            <stop offset="100%" stop-color="#211E39"/>
        </linearGradient>
        <linearGradient id="g" x1="-.007%" x2="100.005%" y1="49.999%" y2="49.999%">
            <stop offset="0%" stop-color="#A4AECF"/>
            <stop offset="100%" stop-color="#211E39"/>
        </linearGradient>
        <linearGradient id="h" x1=".01%" x2="99.993%" y1="49.999%" y2="49.999%">
            <stop offset="0%" stop-color="#211E39"/>
            <stop offset="100%" stop-color="#6A7599"/>
        </linearGradient>
        <linearGradient id="i" x1="100%" x2="0%" y1=".062%" y2="0%">
            <stop offset="0%" stop-color="#A4A9B3"/>
            <stop offset="100%" stop-color="#22283B"/>
        </linearGradient>
    </defs>
    <g fill="none" fill-rule="evenodd">
        <path fill="url(#a)" fill-rule="nonzero" d="M171.1 215L7.6 266.4l228.8 71.9L400 287z" opacity=".1" transform="translate(1)"/>
        <g fill-rule="nonzero">
            <path fill="url(#b)" d="M169.9 0L.2 53.3 238 129l169.4-54.3z" transform="translate(1 174)"/>
            <path fill="url(#c)" d="M237.7 137.9l169.7-53.3v-9.9L237.7 128z" transform="translate(1 174)"/>
            <path fill="#201C38" d="M238.7 311.9L1.2 237.2v-9.9L238.7 302z"/>
        </g>
        <g fill="#726AC9" fill-rule="nonzero">
            <path d="M76.6 215.3L52.1 223c-.5.1-1.3.1-1.9 0-.6-.2-.7-.4-.2-.6l24.5-7.7c.5-.1 1.3-.1 1.9 0 .6.2.7.4.2.6zM72.3 219.8l-4.8 1.5c-.5.1-1.3.1-1.9 0-.6-.2-.7-.4-.2-.6l4.8-1.5c.5-.1 1.3-.1 1.9 0 .6.2.7.5.2.6zM152.9 194.5l-18.3 5.7c-.5.1-1.3.1-1.9 0-.6-.2-.7-.4-.2-.6l18.3-5.7c.5-.1 1.3-.1 1.9 0 .6.2.7.4.2.6zM129.5 205l-12.1 3.8c-.5.1-1.3.1-1.9 0-.6-.2-.7-.4-.2-.6l12.1-3.8c.5-.1 1.3-.1 1.9 0 .6.2.7.5.2.6zM115.3 215.9l-9.8 3.1c-.5.1-1.3.1-1.9 0-.6-.2-.7-.4-.2-.6l9.8-3.1c.5-.1 1.3-.1 1.9 0 .6.2.7.5.2.6zM190.9 192.2l-18.3 5.7c-.5.1-1.3.1-1.9 0-.6-.2-.7-.4-.2-.6l18.3-5.7c.5-.1 1.3-.1 1.9 0 .6.2.7.4.2.6zM159.2 205.3l-26.1 8.2c-.5.1-1.3.1-1.9 0-.6-.2-.7-.4-.2-.6l26.1-8.2c.5-.1 1.3-.1 1.9 0 .6.2.7.5.2.6zM100.2 227.1l-6.8 2.1c-.5.1-1.3.1-1.9 0-.6-.2-.7-.4-.2-.6l6.8-2.1c.5-.1 1.3-.1 1.9 0 .6.2.7.4.2.6zM201.3 195.3l-7.1 2.2c-.5.1-1.3.1-1.9 0-.6-.2-.7-.4-.2-.6l7.1-2.2c.5-.1 1.3-.1 1.9 0 .6.2.7.5.2.6zM108.5 227.7L89 233.8c-.5.1-1.3.1-1.9 0-.6-.2-.7-.4-.2-.6l19.5-6.1c.5-.1 1.3-.1 1.9 0 .5.2.6.5.2.6zM95 238.5l-8.1 2.6c-.5.1-1.3.1-1.9 0-.6-.2-.7-.4-.2-.6l8.1-2.6c.5-.1 1.3-.1 1.9 0 .6.2.7.4.2.6zM142.1 223.7l-14.3 4.5c-.5.1-1.3.1-1.9 0-.6-.2-.7-.4-.2-.6l14.3-4.5c.5-.1 1.3-.1 1.9 0 .6.2.7.4.2.6zM199.9 208.7l-18.3 5.7c-.5.1-1.3.1-1.9 0-.6-.2-.7-.4-.2-.6l18.3-5.7c.5-.1 1.3-.1 1.9 0 .6.2.7.5.2.6zM129.9 233.9l-10.3 3.2c-.5.1-1.3.1-1.9 0-.6-.2-.7-.4-.2-.6l10.3-3.2c.5-.1 1.3-.1 1.9 0 .6.2.7.5.2.6zM187.2 215.9l-6.5 2.1c-.5.1-1.3.1-1.9 0-.6-.2-.7-.4-.2-.6l6.5-2.1c.5-.1 1.3-.1 1.9 0 .6.2.7.5.2.6zM162.3 230.2l-9.8 3.1c-.5.1-1.3.1-1.9 0-.6-.2-.7-.4-.2-.6l9.8-3.1c.5-.1 1.3-.1 1.9 0 .6.1.7.4.2.6zM237.9 206.4l-18.3 5.7c-.5.1-1.3.1-1.9 0-.6-.2-.7-.4-.2-.6l18.3-5.7c.5-.1 1.3-.1 1.9 0 .6.2.7.4.2.6zM175.9 229.1l-18.3 5.7c-.5.1-1.3.1-1.9 0-.6-.2-.7-.4-.2-.6l18.3-5.7c.5-.1 1.3-.1 1.9 0 .6.2.7.4.2.6zM220.7 215l-10.4 3.3c-.5.1-1.3.1-1.9 0-.6-.2-.7-.4-.2-.6l10.4-3.3c.5-.1 1.3-.1 1.9 0 .6.2.7.5.2.6zM248.3 209.5l-7.1 2.2c-.5.1-1.3.1-1.9 0-.6-.2-.7-.4-.2-.6l7.1-2.2c.5-.1 1.3-.1 1.9 0 .6.2.6.5.2.6zM186.3 232.2l-26.7 8.4c-.5.1-1.3.1-1.9 0-.6-.2-.7-.4-.2-.6l26.7-8.4c.5-.1 1.3-.1 1.9 0 .6.2.7.5.2.6zM48 224.3l-8.1 2.6c-.5.1-1.3.1-1.9 0-.6-.2-.7-.4-.2-.6l8.1-2.6c.5-.1 1.3-.1 1.9 0 .6.2.7.4.2.6zM95.1 209.5L80.8 214c-.5.1-1.3.1-1.9 0-.6-.2-.7-.4-.2-.6l14.3-4.5c.5-.1 1.3-.1 1.9 0 .6.2.7.4.2.6zM125.3 200l-26.1 8.2c-.5.1-1.3.1-1.9 0-.6-.2-.7-.4-.2-.6l26.1-8.2c.5-.1 1.3-.1 1.9 0 .6.1.7.4.2.6zM33.3 228.3c.8.2.9.6.3.8-.7.2-1.9.2-2.7-.1-.8-.2-.9-.6-.3-.8.7-.2 1.9-.2 2.7.1zM104.4 209.8l-27.9 8.8c-.5.1-1.3.1-1.9 0-.6-.2-.7-.4-.2-.6l27.9-8.8c.5-.1 1.3-.1 1.9 0 .6.1.6.4.2.6zM130.5 201.5l-22 6.9c-.5.1-1.3.1-1.9 0-.6-.2-.7-.4-.2-.6l22-6.9c.5-.1 1.3-.1 1.9 0 .6.2.7.5.2.6zM38.5 229.8c.8.2.9.6.3.8-.7.2-1.9.2-2.7-.1-.8-.3-.9-.6-.3-.8.7-.1 1.9-.1 2.7.1zM83 219.7l-10.3 3.2c-.5.1-1.3.1-1.9 0-.6-.2-.7-.4-.2-.6l10.3-3.2c.5-.1 1.3-.1 1.9 0 .5.2.6.4.2.6zM113.3 210.1l-26.2 8.3c-.5.1-1.3.1-1.9 0-.6-.2-.7-.4-.2-.6l26.2-8.3c.5-.1 1.3-.1 1.9 0 .6.2.7.5.2.6zM158.1 196.1l-24.4 7.7c-.5.1-1.3.1-1.9 0-.6-.2-.7-.4-.2-.6l24.4-7.7c.5-.1 1.3-.1 1.9 0 .6.2.7.4.2.6zM43.7 231.4c.8.2.9.6.3.8-.7.2-1.9.2-2.7-.1-.8-.2-.9-.6-.3-.8.6-.2 1.9-.1 2.7.1zM118.5 211.7l-18.3 5.7c-.5.1-1.3.1-1.9 0-.6-.2-.7-.4-.2-.6l18.3-5.7c.5-.1 1.3-.1 1.9 0 .6.2.7.5.2.6zM140.9 204.7l-18.3 5.7c-.5.1-1.3.1-1.9 0-.6-.2-.7-.4-.2-.6l18.3-5.7c.5-.1 1.3-.1 1.9 0 .6.2.7.4.2.6zM48.9 233c.8.2.9.6.3.8-.7.2-1.9.2-2.7-.1-.8-.2-.9-.6-.3-.8.7-.2 1.9-.2 2.7.1zM139.9 208.2l-20.5 6.4c-.5.1-1.3.1-1.9 0-.6-.2-.7-.4-.2-.6l20.5-6.4c.5-.1 1.3-.1 1.9 0 .6.2.7.4.2.6zM168.5 199.2l-24.4 7.7c-.5.1-1.3.1-1.9 0-.6-.2-.7-.4-.2-.6l24.4-7.7c.5-.1 1.3-.1 1.9 0 .6.2.7.5.2.6zM54.1 234.5c.8.2.9.6.3.8-.7.2-1.9.2-2.7-.1-.8-.2-.9-.6-.3-.8.7-.1 1.9-.1 2.7.1zM128.9 214.9l-18.3 5.7c-.5.1-1.3.1-1.9 0-.6-.2-.7-.4-.2-.6l18.3-5.7c.5-.1 1.3-.1 1.9 0 .6.2.7.4.2.6zM173.7 200.8l-10.4 3.3c-.5.1-1.3.1-1.9 0-.6-.2-.7-.4-.2-.6l10.4-3.3c.5-.1 1.3-.1 1.9 0 .6.2.7.4.2.6zM59.3 236.1c.8.2.9.6.3.8-.6.2-1.9.2-2.7-.1-.8-.2-.9-.6-.3-.8.7-.2 1.9-.1 2.7.1zM128.2 218.3l-23.8 7.5c-.5.1-1.3.1-1.9 0-.6-.2-.7-.4-.2-.6l23.8-7.5c.5-.1 1.3-.1 1.9 0 .6.2.6.5.2.6zM156.5 209.4l-24.2 7.6c-.5.1-1.3.1-1.9 0-.6-.2-.7-.4-.2-.6l24.2-7.6c.5-.1 1.3-.1 1.9 0 .6.2.7.4.2.6zM190.1 198.8l-29.4 9.3c-.5.1-1.3.1-1.9 0-.6-.2-.7-.4-.2-.6l29.4-9.3c.5-.1 1.3-.1 1.9 0 .6.2.6.5.2.6zM64.5 237.7c.8.2.9.6.3.8-.7.2-1.9.2-2.7-.1-.8-.2-.9-.6-.3-.8.7-.2 1.9-.2 2.7.1zM84.8 235.1l-8.5 2.7c-.5.1-1.3.1-1.9 0-.6-.2-.7-.4-.2-.6l8.5-2.7c.5-.1 1.3-.1 1.9 0 .6.2.7.5.2.6zM139.3 218l-26.7 8.4c-.5.1-1.3.1-1.9 0-.6-.2-.7-.4-.2-.6l26.7-8.4c.5-.1 1.3-.1 1.9 0 .6.2.7.5.2.6zM69.7 239.3c.8.2.9.6.3.8-.7.2-1.9.2-2.7-.1-.8-.2-.9-.6-.3-.8.7-.2 1.9-.2 2.7.1zM74.9 240.8c.8.2.9.6.3.8-.6.2-1.9.2-2.7-.1-.8-.2-.9-.6-.3-.8.7-.1 1.9-.1 2.7.1zM123.6 229.5l-24.5 7.7c-.5.1-1.3.1-1.9 0-.6-.2-.7-.4-.2-.6l24.5-7.7c.5-.1 1.3-.1 1.9 0 .6.2.7.4.2.6zM172.3 214.2l-26.1 8.2c-.5.1-1.3.1-1.9 0-.6-.2-.7-.4-.2-.6l26.1-8.2c.5-.1 1.3-.1 1.9 0 .6.2.7.4.2.6zM80.3 242.5c.8.2.9.6.3.8-.7.2-1.9.2-2.7-.1-.8-.2-.9-.6-.3-.8.6-.2 1.9-.2 2.7.1zM119.3 234l-4.8 1.5c-.5.1-1.3.1-1.9 0-.6-.2-.7-.4-.2-.6l4.8-1.5c.5-.1 1.3-.1 1.9 0 .6.2.7.5.2.6zM151.4 224l-27.9 8.8c-.5.1-1.3.1-1.9 0-.6-.2-.7-.4-.2-.6l27.9-8.8c.5-.1 1.3-.1 1.9 0 .6.2.6.4.2.6zM177.5 215.8l-22 6.9c-.5.1-1.3.1-1.9 0-.6-.2-.7-.4-.2-.6l22-6.9c.5-.1 1.3-.1 1.9 0 .6.1.7.4.2.6zM85.5 244c.8.2.9.6.3.8-.7.2-1.9.2-2.7-.1-.8-.2-.9-.6-.3-.8.7-.1 1.9-.1 2.7.1zM160.3 224.4l-26.2 8.3c-.5.1-1.3.1-1.9 0-.6-.2-.7-.4-.2-.6l26.2-8.3c.5-.1 1.3-.1 1.9 0 .6.2.7.4.2.6zM176.5 219.3l-12.1 3.8c-.5.1-1.3.1-1.9 0-.6-.2-.7-.4-.2-.6l12.1-3.8c.5-.1 1.3-.1 1.9 0 .6.2.7.4.2.6zM90.7 245.6c.8.2.9.6.3.8-.7.2-1.9.2-2.7-.1-.8-.2-.9-.6-.3-.8.7-.2 1.9-.1 2.7.1zM165.5 225.9l-18.3 5.7c-.5.1-1.3.1-1.9 0-.6-.2-.7-.4-.2-.6l18.3-5.7c.5-.1 1.3-.1 1.9 0 .6.2.7.5.2.6zM187.9 218.9l-18.3 5.7c-.5.1-1.3.1-1.9 0-.6-.2-.7-.4-.2-.6l18.3-5.7c.5-.1 1.3-.1 1.9 0 .6.2.7.4.2.6zM95.9 247.2c.8.2.9.6.3.8-.6.2-1.9.2-2.7-.1-.8-.2-.9-.6-.3-.8.7-.2 1.9-.2 2.7.1zM186.9 222.4l-20.5 6.4c-.5.1-1.3.1-1.9 0-.6-.2-.7-.4-.2-.6l20.5-6.4c.5-.1 1.3-.1 1.9 0 .6.2.7.5.2.6zM215.5 213.4l-24.4 7.7c-.5.1-1.3.1-1.9 0-.6-.2-.7-.4-.2-.6l24.4-7.7c.5-.1 1.3-.1 1.9 0 .6.2.7.5.2.6zM101.1 248.8c.8.2.9.6.3.8-.7.2-1.9.2-2.7-.1-.8-.2-.9-.6-.3-.8.6-.2 1.9-.2 2.7.1zM206.2 219.6l-26.1 8.2c-.5.1-1.3.1-1.9 0-.6-.2-.7-.4-.2-.6l26.1-8.2c.5-.1 1.3-.1 1.9 0 .6.2.7.4.2.6zM106.3 250.3c.8.2.9.6.3.8-.7.2-1.9.2-2.7-.1-.8-.2-.9-.6-.3-.8.7-.1 1.9-.1 2.7.1zM147.2 241.3l-6.8 2.1c-.5.1-1.3.1-1.9 0-.6-.2-.7-.4-.2-.6l6.8-2.1c.5-.1 1.3-.1 1.9 0 .6.2.7.5.2.6zM175.2 232.5l-23.8 7.5c-.5.1-1.3.1-1.9 0-.6-.2-.7-.4-.2-.6l23.8-7.5c.5-.1 1.3-.1 1.9 0 .6.2.6.5.2.6zM203.5 223.6l-24.2 7.6c-.5.1-1.3.1-1.9 0-.6-.2-.7-.4-.2-.6l24.2-7.6c.5-.1 1.3-.1 1.9 0 .6.2.7.5.2.6zM237.1 213.1l-29.4 9.3c-.5.1-1.3.1-1.9 0-.6-.2-.7-.4-.2-.6l29.4-9.3c.5-.1 1.3-.1 1.9 0 .5.2.6.4.2.6zM111.5 251.9c.8.2.9.6.3.8-.7.2-1.9.2-2.7-.1-.8-.2-.9-.6-.3-.8.7-.2 1.9-.1 2.7.1zM131.8 249.4l-8.5 2.7c-.5.1-1.3.1-1.9 0-.6-.2-.7-.4-.2-.6l8.5-2.7c.5-.1 1.3-.1 1.9 0 .6.2.6.4.2.6zM155.4 241.9l-19.5 6.1c-.5.1-1.3.1-1.9 0-.6-.2-.7-.4-.2-.6l19.5-6.1c.5-.1 1.3-.1 1.9 0 .6.2.7.5.2.6zM116.7 253.5c.8.2.9.6.3.8-.7.2-1.9.2-2.7-.1-.8-.2-.9-.6-.3-.8.6-.2 1.8-.2 2.7.1zM121.9 255.1c.8.2.9.6.3.8-.7.2-1.9.2-2.7-.1-.8-.2-.9-.6-.3-.8.6-.2 1.8-.2 2.7.1zM139.9 252.9l-6.8 2.1c-.5.1-1.3.1-1.9 0-.6-.2-.7-.4-.2-.6l6.8-2.1c.5-.1 1.3-.1 1.9 0 .6.2.7.5.2.6zM167.8 244.1l-23.8 7.5c-.5.1-1.3.1-1.9 0-.6-.2-.7-.4-.2-.6l23.8-7.5c.5-.1 1.3-.1 1.9 0 .6.2.7.5.2.6zM126.5 256.5c.8.2.9.6.3.8-.7.2-1.9.2-2.7-.1-.8-.2-.9-.6-.3-.8.7-.2 1.9-.2 2.7.1zM146.8 253.9l-8.5 2.7c-.5.1-1.3.1-1.9 0-.6-.2-.7-.4-.2-.6l8.5-2.7c.5-.1 1.3-.1 1.9 0 .6.2.7.5.2.6zM186.5 241.5L151 252.6c-.5.1-1.3.1-1.9 0-.6-.2-.7-.4-.2-.6l35.6-11.2c.5-.1 1.3-.1 1.9 0 .5.2.6.5.1.7zM201.4 236.8l-10.7 3.4c-.5.1-1.3.1-1.9 0-.6-.2-.7-.4-.2-.6l10.7-3.4c.5-.1 1.3-.1 1.9 0 .6.2.6.4.2.6zM131.7 258c.8.2.9.6.3.8-.7.2-1.9.2-2.7-.1-.8-.2-.9-.6-.3-.8.7-.1 1.9-.1 2.7.1z"/>
            <g>
                <path d="M180.3 246.6l-24.5 7.7c-.5.1-1.3.1-1.9 0-.6-.2-.7-.4-.2-.6l24.5-7.7c.5-.1 1.3-.1 1.9 0 .6.2.7.5.2.6zM176 251.2l-4.8 1.5c-.5.1-1.3.1-1.9 0-.6-.2-.7-.4-.2-.6l4.8-1.5c.5-.1 1.3-.1 1.9 0 .6.2.6.4.2.6zM256.5 225.9l-18.3 5.7c-.5.1-1.3.1-1.9 0-.6-.2-.7-.4-.2-.6l18.3-5.7c.5-.1 1.3-.1 1.9 0 .6.1.7.4.2.6zM233.2 236.4l-12.1 3.8c-.5.1-1.3.1-1.9 0-.6-.2-.7-.4-.2-.6l12.1-3.8c.5-.1 1.3-.1 1.9 0 .6.2.6.5.2.6zM218.9 247.3l-9.8 3.1c-.5.1-1.3.1-1.9 0-.6-.2-.7-.4-.2-.6l9.8-3.1c.5-.1 1.3-.1 1.9 0 .6.2.7.4.2.6zM294.5 223.5l-18.3 5.7c-.5.1-1.3.1-1.9 0-.6-.2-.7-.4-.2-.6l18.3-5.7c.5-.1 1.3-.1 1.9 0 .6.2.7.5.2.6zM262.8 236.7l-26.1 8.2c-.5.1-1.3.1-1.9 0-.6-.2-.7-.4-.2-.6l26.1-8.2c.5-.1 1.3-.1 1.9 0 .6.2.7.5.2.6zM203.8 258.5l-6.8 2.1c-.5.1-1.3.1-1.9 0-.6-.2-.7-.4-.2-.6l6.8-2.1c.5-.1 1.3-.1 1.9 0 .6.1.7.4.2.6zM304.9 226.7l-7.1 2.2c-.5.1-1.3.1-1.9 0-.6-.2-.7-.4-.2-.6l7.1-2.2c.5-.1 1.3-.1 1.9 0 .6.2.7.4.2.6zM212.1 259.1l-19.5 6.1c-.5.1-1.3.1-1.9 0-.6-.2-.7-.4-.2-.6l19.5-6.1c.5-.1 1.3-.1 1.9 0 .6.2.7.4.2.6zM198.7 269.8l-8.1 2.6c-.5.1-1.3.1-1.9 0-.6-.2-.7-.4-.2-.6l8.1-2.6c.5-.1 1.3-.1 1.9 0 .5.2.6.5.2.6zM245.7 255l-14.3 4.5c-.5.1-1.3.1-1.9 0-.6-.2-.7-.4-.2-.6l14.3-4.5c.5-.1 1.3-.1 1.9 0 .6.2.7.5.2.6zM303.5 240.1l-18.3 5.7c-.5.1-1.3.1-1.9 0-.6-.2-.7-.4-.2-.6l18.3-5.7c.5-.1 1.3-.1 1.9 0 .6.2.7.4.2.6zM233.6 265.3l-10.3 3.2c-.5.1-1.3.1-1.9 0-.6-.2-.7-.4-.2-.6l10.3-3.2c.5-.1 1.3-.1 1.9 0 .6.2.6.4.2.6zM290.8 247.3l-6.5 2.1c-.5.1-1.3.1-1.9 0-.6-.2-.7-.4-.2-.6l6.5-2.1c.5-.1 1.3-.1 1.9 0 .6.2.7.4.2.6zM265.9 261.5l-9.8 3.1c-.5.1-1.3.1-1.9 0-.6-.2-.7-.4-.2-.6l9.8-3.1c.5-.1 1.3-.1 1.9 0 .6.2.7.5.2.6zM341.5 237.8l-18.3 5.7c-.5.1-1.3.1-1.9 0-.6-.2-.7-.4-.2-.6l18.3-5.7c.5-.1 1.3-.1 1.9 0 .6.1.7.4.2.6zM279.5 260.4l-18.3 5.7c-.5.1-1.3.1-1.9 0-.6-.2-.7-.4-.2-.6l18.3-5.7c.5-.1 1.3-.1 1.9 0 .6.2.7.5.2.6zM324.3 246.4l-10.4 3.3c-.5.1-1.3.1-1.9 0-.6-.2-.7-.4-.2-.6l10.4-3.3c.5-.1 1.3-.1 1.9 0 .6.2.7.4.2.6zM351.9 240.9l-7.1 2.2c-.5.1-1.3.1-1.9 0-.6-.2-.7-.4-.2-.6l7.1-2.2c.5-.1 1.3-.1 1.9 0 .6.2.7.4.2.6zM289.9 263.6l-26.7 8.4c-.5.1-1.3.1-1.9 0-.6-.2-.7-.4-.2-.6l26.7-8.4c.5-.1 1.3-.1 1.9 0 .6.2.7.4.2.6zM151.7 255.6l-8.1 2.6c-.5.1-1.3.1-1.9 0-.6-.2-.7-.4-.2-.6l8.1-2.6c.5-.1 1.3-.1 1.9 0 .6.2.6.5.2.6zM198.7 240.8l-14.3 4.5c-.5.1-1.3.1-1.9 0-.6-.2-.7-.4-.2-.6l14.3-4.5c.5-.1 1.3-.1 1.9 0 .6.2.7.5.2.6zM229 231.3l-26.1 8.2c-.5.1-1.3.1-1.9 0-.6-.2-.7-.4-.2-.6l26.1-8.2c.5-.1 1.3-.1 1.9 0 .6.2.6.5.2.6zM136.9 259.6c.8.2.9.6.3.8-.6.2-1.9.2-2.7-.1-.8-.2-.9-.6-.3-.8.7-.2 1.9-.1 2.7.1zM208 241.1l-27.9 8.8c-.5.1-1.3.1-1.9 0-.6-.2-.7-.4-.2-.6l27.9-8.8c.5-.1 1.3-.1 1.9 0 .6.2.7.5.2.6zM234.2 232.9l-22 6.9c-.5.1-1.3.1-1.9 0-.6-.2-.7-.4-.2-.6l22-6.9c.5-.1 1.3-.1 1.9 0 .5.2.6.4.2.6zM142.1 261.2c.8.2.9.6.3.8-.7.2-1.9.2-2.7-.1-.8-.2-.9-.6-.3-.8.6-.2 1.9-.2 2.7.1zM186.6 251.1l-10.3 3.2c-.5.1-1.3.1-1.9 0-.6-.2-.7-.4-.2-.6l10.3-3.2c.5-.1 1.3-.1 1.9 0 .6.1.7.4.2.6zM217 241.5l-26.2 8.3c-.5.1-1.3.1-1.9 0-.6-.2-.7-.4-.2-.6l26.2-8.3c.5-.1 1.3-.1 1.9 0 .6.2.6.5.2.6zM261.7 227.4l-24.4 7.7c-.5.1-1.3.1-1.9 0-.6-.2-.7-.4-.2-.6l24.4-7.7c.5-.1 1.3-.1 1.9 0 .6.2.7.5.2.6zM147.3 262.8c.8.2.9.6.3.8-.7.2-1.9.2-2.7-.1-.8-.2-.9-.6-.3-.8.6-.2 1.9-.2 2.7.1zM222.2 243.1l-18.3 5.7c-.5.1-1.3.1-1.9 0-.6-.2-.7-.4-.2-.6l18.3-5.7c.5-.1 1.3-.1 1.9 0 .5.2.6.4.2.6zM244.5 236l-18.3 5.7c-.5.1-1.3.1-1.9 0-.6-.2-.7-.4-.2-.6l18.3-5.7c.5-.1 1.3-.1 1.9 0 .6.2.7.5.2.6zM152.5 264.3c.8.2.9.6.3.8-.7.2-1.9.2-2.7-.1-.8-.2-.9-.6-.3-.8.7-.1 1.9-.1 2.7.1zM243.6 239.6l-20.5 6.4c-.5.1-1.3.1-1.9 0-.6-.2-.7-.4-.2-.6l20.5-6.4c.5-.1 1.3-.1 1.9 0 .6.1.6.4.2.6zM272.1 230.6l-24.4 7.7c-.5.1-1.3.1-1.9 0-.6-.2-.7-.4-.2-.6L270 230c.5-.1 1.3-.1 1.9 0 .6.2.7.4.2.6zM157.7 265.9c.8.2.9.6.3.8-.6.2-1.9.2-2.7-.1-.8-.2-.9-.6-.3-.8.7-.2 1.9-.1 2.7.1zM232.5 246.2l-18.3 5.7c-.5.1-1.3.1-1.9 0-.6-.2-.7-.4-.2-.6l18.3-5.7c.5-.1 1.3-.1 1.9 0 .6.2.7.5.2.6zM277.3 232.1l-10.4 3.3c-.5.1-1.3.1-1.9 0-.6-.2-.7-.4-.2-.6l10.4-3.3c.5-.1 1.3-.1 1.9 0 .6.2.7.5.2.6zM162.9 267.5c.8.2.9.6.3.8-.7.2-1.9.2-2.7-.1-.8-.2-.9-.6-.3-.8.7-.2 1.9-.2 2.7.1zM231.8 249.7l-23.8 7.5c-.5.1-1.3.1-1.9 0-.6-.2-.7-.4-.2-.6l23.8-7.5c.5-.1 1.3-.1 1.9 0 .6.2.7.4.2.6zM260.1 240.8l-24.2 7.6c-.5.1-1.3.1-1.9 0-.6-.2-.7-.4-.2-.6l24.2-7.6c.5-.1 1.3-.1 1.9 0 .6.1.7.4.2.6zM293.7 230.2l-29.4 9.3c-.5.1-1.3.1-1.9 0-.6-.2-.7-.4-.2-.6l29.4-9.3c.5-.1 1.3-.1 1.9 0 .6.2.7.5.2.6zM168.1 269c.8.2.9.6.3.8-.7.2-1.9.2-2.7-.1-.8-.2-.9-.6-.3-.8.7-.1 1.9-.1 2.7.1zM188.4 266.5l-8.5 2.7c-.5.1-1.3.1-1.9 0-.6-.2-.7-.4-.2-.6l8.5-2.7c.5-.1 1.3-.1 1.9 0 .6.2.7.5.2.6zM242.9 249.4l-26.7 8.4c-.5.1-1.3.1-1.9 0-.6-.2-.7-.4-.2-.6l26.7-8.4c.5-.1 1.3-.1 1.9 0 .6.2.7.4.2.6zM173.3 270.6c.8.2.9.6.3.8-.6.2-1.9.2-2.7-.1-.8-.2-.9-.6-.3-.8.7-.2 1.9-.1 2.7.1zM178.5 272.2c.8.2.9.6.3.8-.7.2-1.9.2-2.7-.1-.8-.2-.9-.6-.3-.8.7-.2 1.9-.2 2.7.1zM227.3 260.8l-24.5 7.7c-.5.1-1.3.1-1.9 0-.6-.2-.7-.4-.2-.6l24.5-7.7c.5-.1 1.3-.1 1.9 0 .6.2.6.5.2.6zM276 245.5l-26.1 8.2c-.5.1-1.3.1-1.9 0-.6-.2-.7-.4-.2-.6l26.1-8.2c.5-.1 1.3-.1 1.9 0 .5.2.6.5.2.6zM183.9 273.8c.8.2.9.6.3.8-.7.2-1.9.2-2.7-.1-.8-.2-.9-.6-.3-.8.7-.1 1.9-.1 2.7.1zM223 265.4l-4.8 1.5c-.5.1-1.3.1-1.9 0-.6-.2-.7-.4-.2-.6l4.8-1.5c.5-.1 1.3-.1 1.9 0 .6.2.6.5.2.6zM255 255.3l-27.9 8.8c-.5.1-1.3.1-1.9 0-.6-.2-.7-.4-.2-.6l27.9-8.8c.5-.1 1.3-.1 1.9 0 .6.2.7.5.2.6zM281.1 247.1l-22 6.9c-.5.1-1.3.1-1.9 0-.6-.2-.7-.4-.2-.6l22-6.9c.5-.1 1.3-.1 1.9 0 .6.2.7.5.2.6zM189.1 275.4c.8.2.9.6.3.8-.7.2-1.9.2-2.7-.1-.8-.2-.9-.6-.3-.8.7-.2 1.9-.1 2.7.1zM264 255.7l-26.2 8.3c-.5.1-1.3.1-1.9 0-.6-.2-.7-.4-.2-.6l26.2-8.3c.5-.1 1.3-.1 1.9 0 .5.2.6.5.2.6zM280.2 250.6l-12.1 3.8c-.5.1-1.3.1-1.9 0-.6-.2-.7-.4-.2-.6l12.1-3.8c.5-.1 1.3-.1 1.9 0 .6.2.6.5.2.6zM194.3 277c.8.2.9.6.3.8-.6.2-1.9.2-2.7-.1-.8-.2-.9-.6-.3-.8.7-.2 1.9-.2 2.7.1zM269.1 257.3l-18.3 5.7c-.5.1-1.3.1-1.9 0-.6-.2-.7-.4-.2-.6l18.3-5.7c.5-.1 1.3-.1 1.9 0 .6.2.7.4.2.6zM291.5 250.3l-18.3 5.7c-.5.1-1.3.1-1.9 0-.6-.2-.7-.4-.2-.6l18.3-5.7c.5-.1 1.3-.1 1.9 0 .6.1.7.4.2.6zM199.5 278.6c.8.2.9.6.3.8-.7.2-1.9.2-2.7-.1-.8-.3-.9-.6-.3-.8.6-.2 1.9-.2 2.7.1zM290.6 253.8l-20.5 6.4c-.5.1-1.3.1-1.9 0-.6-.2-.7-.4-.2-.6l20.5-6.4c.5-.1 1.3-.1 1.9 0 .5.2.6.4.2.6zM319.1 244.8l-24.4 7.7c-.5.1-1.3.1-1.9 0-.6-.2-.7-.4-.2-.6l24.4-7.7c.5-.1 1.3-.1 1.9 0 .6.2.7.4.2.6zM204.7 280.1c.8.2.9.6.3.8-.7.2-1.9.2-2.7-.1-.8-.2-.9-.6-.3-.8.7-.2 1.9-.1 2.7.1zM309.8 250.9l-26.1 8.2c-.5.1-1.3.1-1.9 0-.6-.2-.7-.4-.2-.6l26.1-8.2c.5-.1 1.3-.1 1.9 0 .6.2.7.5.2.6zM209.9 281.7c.8.2.9.6.3.8-.7.2-1.9.2-2.7-.1-.8-.2-.9-.6-.3-.8.7-.2 1.9-.1 2.7.1zM250.8 272.7l-6.8 2.1c-.5.1-1.3.1-1.9 0-.6-.2-.7-.4-.2-.6l6.8-2.1c.5-.1 1.3-.1 1.9 0 .6.2.7.4.2.6zM278.8 263.9l-23.8 7.5c-.5.1-1.3.1-1.9 0-.6-.2-.7-.4-.2-.6l23.8-7.5c.5-.1 1.3-.1 1.9 0 .6.2.7.4.2.6zM307.1 255l-24.2 7.6c-.5.1-1.3.1-1.9 0-.6-.2-.7-.4-.2-.6l24.2-7.6c.5-.1 1.3-.1 1.9 0 .6.2.7.4.2.6zM340.7 244.4l-29.4 9.3c-.5.1-1.3.1-1.9 0-.6-.2-.7-.4-.2-.6l29.4-9.3c.5-.1 1.3-.1 1.9 0 .6.2.7.5.2.6zM215.1 283.3c.8.2.9.6.3.8-.7.2-1.9.2-2.7-.1-.8-.2-.9-.6-.3-.8.6-.2 1.9-.2 2.7.1zM235.4 280.7l-8.5 2.7c-.5.1-1.3.1-1.9 0-.6-.2-.7-.4-.2-.6l8.5-2.7c.5-.1 1.3-.1 1.9 0 .6.2.7.5.2.6zM259.1 273.3l-19.5 6.1c-.5.1-1.3.1-1.9 0-.6-.2-.7-.4-.2-.6l19.5-6.1c.5-.1 1.3-.1 1.9 0 .6.2.7.4.2.6zM220.3 284.8c.8.2.9.6.3.8-.7.2-1.9.2-2.7-.1-.8-.2-.9-.6-.3-.8.7-.1 1.9-.1 2.7.1zM225.5 286.4c.8.2.9.6.3.8-.7.2-1.9.2-2.7-.1-.8-.2-.9-.6-.3-.8.7-.2 1.9-.1 2.7.1zM243.5 284.3l-6.8 2.1c-.5.1-1.3.1-1.9 0-.6-.2-.7-.4-.2-.6l6.8-2.1c.5-.1 1.3-.1 1.9 0 .6.2.7.4.2.6zM271.5 275.5l-23.8 7.5c-.5.1-1.3.1-1.9 0-.6-.2-.7-.4-.2-.6l23.8-7.5c.5-.1 1.3-.1 1.9 0 .6.2.7.4.2.6zM230.2 287.8c.8.2.9.6.3.8-.7.2-1.9.2-2.7-.1-.8-.2-.9-.6-.3-.8.7-.1 1.9-.1 2.7.1zM250.5 285.3L242 288c-.5.1-1.3.1-1.9 0-.6-.2-.7-.4-.2-.6l8.5-2.7c.5-.1 1.3-.1 1.9 0 .6.2.7.4.2.6zM290.2 272.8L254.6 284c-.5.1-1.3.1-1.9 0-.6-.2-.7-.4-.2-.6l35.6-11.2c.5-.1 1.3-.1 1.9 0 .6.2.6.5.2.6zM305 268.2l-10.7 3.4c-.5.1-1.3.1-1.9 0-.6-.2-.7-.4-.2-.6l10.7-3.4c.5-.1 1.3-.1 1.9 0 .6.1.7.4.2.6zM235.4 289.4c.8.2.9.6.3.8-.7.2-1.9.2-2.7-.1-.8-.2-.9-.6-.3-.8.6-.2 1.9-.1 2.7.1zM240.6 291c.8.2.9.6.3.8-.7.2-1.9.2-2.7-.1-.8-.2-.9-.6-.3-.8.7-.2 1.9-.2 2.7.1z"/>
            </g>
        </g>
        <path fill="#17142D" fill-rule="nonzero" d="M171 175l-81.5 25.5 152.3 48 81.4-25.5z" opacity=".5"/>
        <g fill-rule="nonzero">
            <path fill="url(#d)" d="M169.9 0L.2 53.3 237.5 129l169.9-54.3z" transform="translate(1 85)"/>
            <path fill="url(#e)" d="M237.5 138l169.9-53.4v-9.9L237.5 128z" transform="translate(1 85)"/>
            <path fill="#D7D7F4" d="M238.7 222.9L1.2 148.2v-9.9L238.7 213z"/>
        </g>
        <g fill="#908FAB" fill-rule="nonzero">
            <g opacity=".3">
                <path d="M232.4 138.6l-17.7 5.3c-.6.2-1.7.1-2.4-.1-.8-.2-1-.6-.4-.8l17.7-5.3c.6-.2 1.7-.1 2.4.1.8.3 1 .6.4.8zM229.2 142.7l-9.3 2.8c-.6.2-1.7.1-2.4-.1-.8-.2-1-.6-.4-.8l9.3-2.8c.6-.2 1.7-.1 2.4.1.8.3 1 .6.4.8z"/>
            </g>
            <path d="M199.5 133.6l3.2 1c8.9-2.6 25.9-1.6 38.1 2.2l2.3-.7c-14-4.4-33.5-5.5-43.6-2.5z"/>
            <path d="M240.8 136.8c12.2 3.9 14.9 9.1 6 11.7-8.5 2.5-24.5 1.7-36.6-1.7-.9-.3-2-.3-2.6-.1-.7.2-.4.6.5.9 13.8 4 32.1 4.9 41.9 2 10.1-3 7-9-6.9-13.4l-2.3.6z" opacity=".3"/>
            <g opacity=".3">
                <path d="M245.4 179.1l-17.7 5.3c-.6.2-1.7.1-2.4-.1-.8-.2-1-.6-.4-.8l17.7-5.3c.6-.2 1.7-.1 2.4.1.8.3 1 .7.4.8zM242.2 183.3l-9.3 2.8c-.6.2-1.7.1-2.4-.1-.8-.2-1-.6-.4-.8l9.3-2.8c.6-.2 1.7-.1 2.4.1.8.2 1 .6.4.8z"/>
            </g>
            <path d="M212.5 174.2l3.2 1c8.9-2.6 25.9-1.6 38.1 2.2l2.3-.7c-14-4.4-33.5-5.5-43.6-2.5z"/>
            <path d="M253.8 177.4c12.2 3.9 14.9 9.1 6 11.7-8.5 2.5-24.5 1.7-36.6-1.7-.9-.3-2-.3-2.6-.1-.7.2-.4.6.5.9 13.8 4 32.1 4.9 41.9 2 10.1-3 7-9-6.9-13.4l-2.3.6z" opacity=".3"/>
            <g>
                <g opacity=".3">
                    <path d="M163 116.7l-17.7 5.3c-.6.2-1.7.1-2.4-.1-.8-.2-1-.6-.4-.8l17.7-5.3c.6-.2 1.7-.1 2.4.1.8.2 1 .6.4.8zM159.8 120.8l-9.3 2.8c-.6.2-1.7.1-2.4-.1-.8-.2-1-.6-.4-.8l9.3-2.8c.6-.2 1.7-.1 2.4.1.8.3 1 .6.4.8z"/>
                </g>
                <path d="M139.3 124.4c-5.6-1.8-9.1-3.8-10.6-5.8-.2-.3-1.2-.6-2.2-.7-1.1-.1-1.8.2-1.6.5 1.6 2.2 5.7 4.6 12.1 6.6 13.9 4.4 33.4 5.5 43.6 2.5l-3.2-1c-8.8 2.8-25.9 1.8-38.1-2.1z" opacity=".3"/>
                <path d="M130.1 111.7l3.2 1c8.9-2.6 25.9-1.6 38.1 2.2 6.1 1.9 9.8 4.2 10.9 6.3 1.1 2.1-.4 4.1-4.9 5.4l3.2 1c5.1-1.5 6.8-3.8 5.6-6.2-1.2-2.4-5.5-5-12.5-7.2-14-4.4-33.5-5.5-43.6-2.5z"/>
            </g>
            <g>
                <g opacity=".3">
                    <path d="M302.3 160.6l-17.7 5.3c-.6.2-1.7.1-2.4-.1-.8-.2-1-.6-.4-.8l17.7-5.3c.6-.2 1.7-.1 2.4.1.8.3.9.7.4.8zM299.1 164.8l-9.3 2.8c-.6.2-1.7.1-2.4-.1-.8-.2-1-.6-.4-.8l9.3-2.8c.6-.2 1.7-.1 2.4.1.8.3.9.6.4.8z"/>
                </g>
                <path d="M278.5 168.4c-5.6-1.8-9.1-3.8-10.6-5.8-.2-.3-1.2-.6-2.2-.7-1.1-.1-1.8.2-1.6.5 1.6 2.2 5.7 4.6 12.1 6.6 13.9 4.4 33.4 5.5 43.6 2.5l-3.2-1c-8.8 2.7-25.9 1.8-38.1-2.1z" opacity=".3"/>
                <path d="M269.3 155.7l3.2 1c8.9-2.6 25.9-1.6 38.1 2.2 6.1 1.9 9.8 4.2 10.9 6.3 1.1 2.1-.4 4.1-4.9 5.4l3.2 1c5.1-1.5 6.8-3.8 5.6-6.2-1.2-2.4-5.5-5-12.5-7.2-13.9-4.4-33.4-5.5-43.6-2.5z"/>
            </g>
            <g>
                <g opacity=".3">
                    <path d="M175.8 157l-17.7 5.3c-.6.2-1.7.1-2.4-.1-.8-.2-1-.6-.4-.8l17.7-5.3c.6-.2 1.7-.1 2.4.1.8.3.9.7.4.8zM172.6 161.2l-9.3 2.8c-.6.2-1.7.1-2.4-.1-.8-.2-1-.6-.4-.8l9.3-2.8c.6-.2 1.7-.1 2.4.1.8.3.9.6.4.8z"/>
                </g>
                <path d="M184.1 155.3c6.1 1.9 9.8 4.2 10.9 6.3l3.9.2c-1.2-2.4-5.5-5-12.5-7.2-13.9-4.4-33.4-5.5-43.6-2.5l3.2 1c8.9-2.7 25.9-1.7 38.1 2.2z"/>
                <path d="M195 161.6c1 1.9-.2 3.8-3.8 5.1-.6.2-.3.6.5.8.9.3 2.2.4 2.8.1 4.2-1.5 5.6-3.6 4.4-5.8l-3.9-.2z" opacity=".3"/>
            </g>
            <g>
                <path d="M93.6 133.9l-2.7.5c-.7-.1-1.3-.3-2-.4l-1.1-1.2c-.2-.2-.8-.4-1.5-.4l-2.2-.1c-.7 0-1.1.1-1.1.3v1.1c-.6 0-1.2.1-1.8.1l-3.4-.9c-.6-.2-1.3-.2-1.7-.1l-1.3.4c-.4.1-.3.3.1.5l2.7 1.1-.5.5h-3.7c-.6 0-1 .1-.9.3l.4.7c.1.2.7.4 1.3.5l3.8.4c.3.2.7.4 1.1.6l-1.8.8c-.3.1-.1.4.4.5l1.8.6c.5.2 1.3.2 1.7.1l2.7-.5c.7.1 1.3.3 2 .4l1.1 1.2c.2.2.8.4 1.5.4l2.2.1c.7 0 1.1-.1 1.1-.3V140c.6 0 1.2-.1 1.8-.1l3.4.9c.6.2 1.3.2 1.7.1l1.3-.4c.4-.1.3-.3-.1-.5l-2.7-1.1.5-.5h3.7c.6 0 1-.1.9-.3l-.4-.7c-.1-.2-.7-.4-1.3-.5l-3.8-.4c-.3-.2-.7-.4-1.1-.6l1.8-.8c.3-.1.1-.4-.4-.5l-1.8-.6c-.5-.1-1.2-.1-1.7-.1zm-1.2 4.6c-2 .6-5.8.4-8.5-.5s-3.3-2-1.3-2.6c2-.6 5.8-.4 8.5.5s3.2 2.1 1.3 2.6z"/>
                <path d="M126.1 136.8l-3.5.1c-.5-.2-1.1-.4-1.7-.5l.3-1.1c.1-.2-.4-.4-1-.5l-2.2-.4c-.6-.1-1.3-.1-1.5.1l-1.4.9c-.7-.1-1.4-.1-2.1-.1l-2.5-1.1c-.4-.2-1.2-.3-1.7-.3l-1.9.2c-.6 0-.8.2-.5.4l1.5 1.2c-.5.1-.9.2-1.2.4l-3.8-.5c-.7-.1-1.3 0-1.4.2l-.5.6c-.1.2.2.4.8.5l3.6.8c0 .2.2.4.4.6l-2.9.4c-.5.1-.6.3-.3.5l1.2.7c.4.2 1.1.3 1.7.3l3.5-.1c.5.2 1.1.4 1.7.5l-.3 1.1c-.1.2.4.4 1 .5l2.2.4c.6.1 1.3.1 1.5-.1l1.4-.9c.7.1 1.4.1 2.1.1l2.5 1.1c.4.2 1.2.3 1.7.3l1.9-.2c.6 0 .8-.2.5-.4l-1.5-1.2c.5-.1.9-.2 1.2-.4l3.8.5c.7.1 1.3 0 1.4-.2l.5-.6c.1-.2-.2-.4-.8-.5l-3.6-.8c0-.2-.2-.4-.4-.6l2.9-.4c.5-.1.6-.3.3-.5l-1.2-.7c-.4-.2-1.1-.3-1.7-.3zm-7.1 3.5c-2.8.2-6.6-.4-8.4-1.4-1.8-1-1-2 1.9-2.3 2.9-.3 6.6.4 8.4 1.4 1.8 1.1.9 2.1-1.9 2.3z"/>
            </g>
        </g>
        <path fill="#4744A5" fill-rule="nonzero" d="M171 86l-81.5 25.5 152.3 48 81.4-25.5z" opacity=".2"/>
        <g fill-rule="nonzero">
            <path fill="url(#f)" d="M169.9 0L.2 53.3l237.3 75.2 169.9-53.8z" transform="translate(1)"/>
            <path fill="url(#g)" d="M237.7 137.9l169.7-53.3v-9.9L237.7 128z" transform="translate(1)"/>
            <path fill="url(#h)" d="M237.7 137.9L.2 63.2v-9.9L237.7 128z" transform="translate(1)"/>
        </g>
        <g stroke="#201C38" stroke-dasharray="0,3.9578" stroke-linecap="round" opacity=".75">
            <path d="M408.4 251.6V87.4M238.7 142.6v164.3" opacity=".5"/>
            <path d="M1.2 230.2V66"/>
        </g>
        <g fill-rule="nonzero">
            <g fill="#A7B0C7">
                <path d="M228.3 91.6l-29.8 9.1c-1.4.4-3.2.5-4.1.2l-4.9-1.5c-.9-.3-.6-.8.7-1.3L220 89c1.4-.4 3.2-.5 4.1-.2l4.9 1.5c1 .3.7.9-.7 1.3zM285.8 74l-39.6 12.1c-1.4.4-3.2.5-4.1.2l-4.9-1.5c-.9-.3-.6-.8.7-1.3l39.6-12.1c1.4-.4 3.2-.5 4.1-.2l4.9 1.5c1 .3.7.9-.7 1.3zM326.8 61.5l-25.1 7.7c-1.4.4-3.2.5-4.1.2l-4.9-1.5c-.9-.3-.6-.8.7-1.3l25.1-7.7c1.4-.4 3.2-.5 4.1-.2l4.9 1.5c1 .3.7.9-.7 1.3z"/>
            </g>
            <g fill="#A7B0C7">
                <path d="M236.3 98l-23.1 7.1c-1.4.4-3.2.5-4.1.2l-4.9-1.5c-.9-.3-.6-.8.7-1.3l23.1-7.1c1.4-.4 3.2-.5 4.1-.2l4.9 1.5c1 .3.7.9-.7 1.3zM270 87.7l-18.3 5.6c-1.4.4-3.2.5-4.1.2l-4.9-1.5c-.9-.3-.6-.8.7-1.3l18.3-5.6c1.4-.4 3.2-.5 4.1-.2l4.9 1.5c.9.3.6.9-.7 1.3zM316 73.6L285.4 83c-1.4.4-3.2.5-4.1.2l-4.9-1.5c-.9-.3-.6-.8.7-1.3l30.6-9.4c1.4-.4 3.2-.5 4.1-.2l4.9 1.5c.9.3.6.9-.7 1.3z"/>
            </g>
            <g fill="#A7B0C7">
                <path d="M275.6 94.8l-47.8 14.6c-1.4.4-3.2.5-4.1.2l-4.9-1.5c-.9-.3-.6-.8.7-1.3l47.8-14.6c1.4-.4 3.2-.5 4.1-.2l4.9 1.5c.9.3.6.8-.7 1.3zM340.6 74.9L292 89.7c-1.4.4-3.2.5-4.1.2l-4.9-1.5c-.9-.3-.6-.8.7-1.3l48.7-14.9c1.4-.4 3.2-.5 4.1-.2l4.9 1.5c.9.4.6.9-.8 1.4z"/>
            </g>
            <g fill="#A7B0C7">
                <path d="M99.8 66.3l5.1.2c.4 0 .8 0 1.1-.1l5.2-1.3c.9-.2 1.9-.1 1.7.2l-1.1 1.7c-.1.1 0 .2.3.3l4.1.7c.7.1.3.5-.7.7l-5.8.8c-.4.1-.7.2-.9.3l-2.7 1.8c-.5.3-1.8.4-2.2.2l-2.5-1.2c-.2-.1-.5-.1-.9-.1l-5.8.4c-1 .1-1.4-.2-.6-.5l4.3-1.6c.3-.1.4-.2.4-.3l-.9-1.5c-.1-.5 1-.8 1.9-.7zM127.2 57.9l5.1.2c.4 0 .8 0 1.1-.1l5.2-1.3c.9-.2 1.9-.1 1.7.2l-1.1 1.7c-.1.1 0 .2.3.3l4.1.7c.7.1.3.5-.7.7l-5.8.8c-.4.1-.7.2-.9.3l-2.7 1.8c-.5.3-1.8.4-2.2.2l-2.5-1.2c-.2-.1-.5-.1-.9-.1l-5.8.4c-1 .1-1.4-.2-.6-.5l4.3-1.6c.3-.1.4-.2.4-.3l-.9-1.5c-.1-.4 1-.8 1.9-.7zM154.6 49.5l5.1.2c.4 0 .8 0 1.1-.1l5.2-1.3c.9-.2 1.9-.1 1.7.2l-1.1 1.7c-.1.1 0 .2.3.3l4.1.7c.7.1.3.5-.7.7l-5.8.8c-.4.1-.7.2-.9.3l-2.7 1.8c-.5.3-1.8.4-2.2.2l-2.5-1.2c-.2-.1-.5-.1-.9-.1l-5.8.4c-1 .1-1.4-.2-.6-.5l4.3-1.6c.3-.1.4-.2.4-.3l-.9-1.5c-.1-.4 1-.8 1.9-.7z"/>
                <path d="M182 41.1l5.1.2c.4 0 .8 0 1.1-.1l5.2-1.3c.9-.2 1.9-.1 1.7.2l-1.1 1.7c-.1.1 0 .2.3.3l4.1.7c.7.1.3.5-.7.7l-5.8.8c-.4.1-.7.2-.9.3l-2.7 1.8c-.5.3-1.8.4-2.2.2l-2.5-1.2c-.2-.1-.5-.1-.9-.1l-5.8.4c-1 .1-1.4-.2-.6-.5l4.3-1.6c.3-.1.4-.2.4-.3l-.9-1.5c-.1-.4 1-.7 1.9-.7zM209.3 32.7l5.1.2c.4 0 .8 0 1.1-.1l5.2-1.3c.9-.2 1.9-.1 1.7.2l-1.1 1.7c-.1.1 0 .2.3.3l4.1.7c.7.1.3.5-.7.7l-5.8.8c-.4.1-.7.2-.9.3l-2.7 1.8c-.5.3-1.8.4-2.2.2l-2.5-1.2c-.2-.1-.5-.1-.9-.1l-5.8.4c-1 .1-1.4-.2-.6-.5l4.3-1.6c.3-.1.4-.2.4-.3l-.9-1.5c0-.4 1.1-.7 1.9-.7z" opacity=".5"/>
            </g>
            <g fill="#A7B0C7">
                <path d="M158.9 83.1l-8 2.4c-1.9.6-4.5.7-5.8.3l-5.5-1.6c-1.3-.4-.8-1.2 1-1.8l8-2.4c1.9-.6 4.5-.7 5.8-.3l5.5 1.6c1.4.4.9 1.2-1 1.8z"/>
                <path d="M221.6 61.8l-55.2 16.9c-1.2.4-3 .5-3.8.2-.9-.3-.6-.8.7-1.2l55.2-16.9c1.2-.4 3-.5 3.8-.2.8.3.5.8-.7 1.2z" opacity=".3"/>
            </g>
            <g fill="#A7B0C7">
                <path d="M176.3 88.2l-8 2.4c-1.9.6-4.5.7-5.8.3l-5.5-1.6c-1.3-.4-.8-1.2 1-1.8l8-2.4c1.9-.6 4.5-.7 5.8-.3l5.5 1.6c1.3.5.9 1.2-1 1.8z"/>
                <path d="M253.3 62.5l-69.5 21.3c-1.2.4-3 .5-3.8.2-.9-.3-.6-.8.7-1.2l69.5-21.3c1.2-.4 3-.5 3.8-.2.8.3.5.8-.7 1.2z" opacity=".3"/>
            </g>
            <g fill="#A7B0C7">
                <path d="M229.1 49l-80 24.5c-1.2.4-3 .5-3.8.2-.9-.3-.6-.8.7-1.2L226 48c1.2-.4 3-.5 3.8-.2.9.3.6.8-.7 1.2z" opacity=".3"/>
                <path d="M131.3 74.9l-8 2.4c-1.9.6-2.4 1.4-1 1.8l5.5 1.6c1.3.4 3.9.2 5.8-.3l8-2.4c1.9-.6 2.4-1.4 1-1.8l-5.5-1.6c-1.3-.4-3.9-.3-5.8.3zm4.5.8l-1.9 3.1-6.1.4c-.6 0-1-.1-.9-.3.1-.2.7-.4 1.3-.4l3.9-.2 1.5-2.4c.1-.2.7-.4 1.3-.4.6-.1 1 0 .9.2z"/>
            </g>
            <path fill="#A7B0C7" d="M192.3 26.2L83.4 59.5c-7.5 2.3-17.9 2.9-23.1 1.4-5.2-1.5-3.3-4.7 4.2-7l108.9-33.3c7.5-2.3 17.9-2.9 23.1-1.4 5.1 1.6 3.3 4.7-4.2 7z"/>
            <g fill="#FFF">
                <path d="M79 57.4c-1.5.5-3.4.8-5.4.9-3.9.2-6.5-.5-5.8-1.7.7-1.2 4.4-2.3 8.3-2.5 3.9-.2 6.5.5 5.8 1.7-.3.6-1.4 1.2-2.9 1.6zm-6.7-1.9c-.9.3-1.6.6-1.8 1-.4.7 1.2 1.2 3.6 1.1 2.4-.1 4.7-.9 5.2-1.6.4-.7-1.2-1.2-3.6-1.1-1.2.1-2.4.3-3.4.6z"/>
                <path d="M86.5 55.8c-.3.1-.6.2-1 .2l-4.5.3c-.7 0-1.2-.1-1.1-.3.1-.2.8-.4 1.6-.5l4.5-.3c.7 0 1.2.1 1.1.3-.1.1-.4.2-.6.3z"/>
            </g>
        </g>
        <path fill="url(#i)" fill-rule="nonzero" d="M6.8 1.7c.7.4 1.2.9 1.6 1.5.4.7.6 1.4.6 2.2 0 .8-.2 1.5-.6 2.2-.4.7-.9 1.2-1.6 1.6-.7.4-1.4.6-2.3.6-.9 0-1.6-.2-2.3-.6C1.5 8.8 1 8.3.6 7.6.2 6.9 0 6.2 0 5.4c0-.8.2-1.5.6-2.2.4-.7.9-1.2 1.6-1.5.7-.4 1.4-.6 2.3-.6.9 0 1.6.2 2.3.6zM3.1 3c-.4.3-.8.6-1 1-.3.4-.4.9-.4 1.4 0 .5.1 1 .4 1.5.3.4.6.8 1 1 .4.3.9.4 1.4.4.5 0 1-.1 1.4-.4.4-.3.8-.6 1-1 .3-.4.4-.9.4-1.5s-.1-1-.4-1.4c-.3-.4-.6-.8-1-1-.4-.3-.9-.4-1.4-.4-.5 0-.9.1-1.4.4zm13.2.2v6.4h-1.6V8.4c-.4.8-1.2 1.2-2.2 1.2-.7 0-1.3-.2-1.7-.7-.4-.4-.6-1-.6-1.8v-4h1.6v3.6c0 .4.1.8.4 1.1.3.3.6.4 1 .4.5 0 .9-.2 1.2-.5.3-.3.4-.8.4-1.3V3.2h1.5zM22 9.3c-.5.3-1 .5-1.6.5-.6 0-1-.2-1.4-.5-.4-.3-.5-.8-.5-1.4V4.7h-.9V3.6h.9V1.8H20v1.8h1.8v1.1H20v2.9c0 .3.1.5.2.6.1.1.3.2.5.2s.5-.1.9-.3l.4 1.2zm8.7-5.7c.5.3.9.7 1.2 1.1.3.5.4 1.1.4 1.7 0 .6-.1 1.2-.4 1.7-.3.5-.7.9-1.2 1.2-.5.3-1.1.4-1.8.4s-1.3-.1-1.8-.4c-.5-.3-.9-.7-1.2-1.2-.3-.5-.4-1.1-.4-1.7 0-.6.1-1.2.4-1.7.3-.5.7-.9 1.2-1.1.5-.3 1.1-.4 1.8-.4s1.3.1 1.8.4zm-3.1 1.5c-.3.4-.5.8-.5 1.4 0 .6.2 1 .5 1.4.3.4.8.5 1.3.5s1-.2 1.3-.5c.3-.3.5-.8.5-1.4 0-.6-.2-1-.5-1.4-.3-.4-.8-.5-1.3-.5-.5-.1-.9.1-1.3.5zm8.1-2.9c-.2.1-.2.3-.2.6v.7h1.6v1.1h-1.6v5h-1.6v-5h-.8V3.5h.8v-.6c0-.5.1-.9.3-1.2.2-.3.5-.6.8-.8.3-.2.7-.3 1.1-.3.4 0 .8.1 1.2.3L37 2.2c-.3-.1-.6-.2-.8-.2-.2 0-.4.1-.5.2zm9 7.1c-.5.3-1 .5-1.6.5-.6 0-1-.2-1.4-.5-.4-.3-.5-.8-.5-1.4V4.7h-.9V3.6h.9V1.8h1.5v1.8h1.8v1.1h-1.8v2.9c0 .3.1.5.2.6.1.1.3.2.5.2s.5-.1.9-.3l.4 1.2zm6.9-5.4c.4.4.6 1 .6 1.8v4h-1.6V6.1c0-.4-.1-.8-.4-1.1-.3-.3-.6-.4-1-.4-.5 0-.9.2-1.2.5-.3.3-.5.8-.5 1.3v3.2H46V.7h1.6v3.7c.4-.8 1.2-1.3 2.3-1.3.7.1 1.3.3 1.7.8zm7.4.2c.5.6.8 1.4.8 2.5v.5H55c.1.5.3.8.6 1.1.3.3.7.4 1.2.4.3 0 .6-.1.9-.2.3-.1.6-.3.8-.5l.8.9c-.3.4-.7.6-1.2.8-.5.2-1 .3-1.5.3-.7 0-1.2-.1-1.7-.4-.5-.3-.9-.7-1.2-1.1-.3-.4-.4-1.1-.4-1.7 0-.6.1-1.2.4-1.7.3-.5.7-.9 1.2-1.2.5-.3 1.1-.4 1.7-.4 1.1-.2 1.8.1 2.4.7zM58.3 6c0-.5-.2-.8-.5-1.1-.3-.3-.7-.4-1.2-.4s-.8.1-1.1.4c-.3.3-.5.7-.6 1.1h3.4zm11.1-2.4c.5.3.8.7 1.1 1.2.3.5.4 1.1.4 1.7 0 .6-.1 1.2-.4 1.7-.2.5-.6.9-1.1 1.1-.5.3-1 .4-1.6.4-.5 0-.9-.1-1.3-.3-.4-.2-.7-.5-.9-.8v1H64V.7h1.6v3.5c.2-.4.5-.6.9-.8.4-.2.8-.3 1.3-.3.6.1 1.1.2 1.6.5zm-.7 4.2c.3-.4.5-.8.5-1.4 0-.6-.2-1-.5-1.4-.3-.4-.8-.5-1.3-.5s-1 .2-1.3.5c-.3.3-.5.8-.5 1.4 0 .6.2 1 .5 1.4.3.4.8.5 1.3.5.6.1 1-.1 1.3-.5zm8-4.2c.5.3.9.7 1.2 1.1.3.5.4 1.1.4 1.7 0 .6-.1 1.2-.4 1.7-.3.5-.7.9-1.2 1.2-.5.3-1.1.4-1.8.4s-1.3-.1-1.8-.4c-.5-.3-.9-.7-1.2-1.2-.3-.5-.4-1.1-.4-1.7 0-.6.1-1.2.4-1.7.3-.5.7-.9 1.2-1.1.5-.3 1.1-.4 1.8-.4.8 0 1.3.1 1.8.4zm-3 1.5c-.3.4-.5.8-.5 1.4 0 .6.2 1 .5 1.4.3.4.8.5 1.3.5s1-.2 1.3-.5c.3-.3.5-.8.5-1.4 0-.6-.2-1-.5-1.4-.3-.4-.8-.5-1.3-.5-.6-.1-1 .1-1.3.5zm5-1.9h1.8l1.3 2.1 1.4-2.1h1.7l-2 3.1 2.2 3.3h-1.8l-1.4-2.2-1.5 2.2h-1.7l2.2-3.3-2.2-3.1z" transform="translate(420 73)"/>
        <g fill="#AAAAE0" fill-rule="nonzero">
            <path d="M425.1 161.2c-.4-.2-.8-.3-1.2-.3-.5 0-1 .1-1.4.4-.4.2-.8.6-1 1-.2.4-.4.9-.4 1.4 0 .5.1 1 .4 1.4.2.4.6.8 1 1 .4.3.9.4 1.4.4.4 0 .8-.1 1.2-.3.4-.2.8-.4 1.1-.7l.9 1.1c-.4.4-1 .8-1.5 1.1-.6.3-1.2.4-1.8.4-.8 0-1.5-.2-2.2-.6-.7-.4-1.2-.9-1.6-1.6-.4-.7-.6-1.4-.6-2.2 0-.8.2-1.5.6-2.2.4-.7.9-1.2 1.6-1.5.7-.4 1.4-.6 2.2-.6.6 0 1.2.1 1.8.4.6.2 1.1.6 1.5 1l-.9 1.2c-.4-.3-.7-.6-1.1-.8zM434.3 161.6v6.4h-1.6v-1.2c-.4.8-1.2 1.2-2.2 1.2-.7 0-1.3-.2-1.7-.7-.4-.4-.6-1-.6-1.8v-4h1.6v3.6c0 .4.1.8.4 1.1.3.3.6.4 1 .4.5 0 .9-.2 1.2-.5.3-.3.4-.8.4-1.3v-3.2h1.5zM439 162.9c-.3-.1-.6-.2-.9-.2-.3 0-.5 0-.6.1-.2.1-.2.2-.2.4s.1.4.3.5c.2.1.5.2.9.3.4.1.8.3 1.1.4.3.1.5.3.8.6.2.3.3.6.3 1 0 .6-.2 1.1-.7 1.4-.5.3-1.1.5-1.8.5-.5 0-1-.1-1.5-.2-.5-.2-.9-.4-1.2-.7l.5-1.1c.3.2.6.4 1 .6.4.1.8.2 1.1.2.3 0 .5 0 .7-.2.2-.1.3-.2.3-.5 0-.2-.1-.4-.3-.5-.2-.1-.5-.2-1-.4-.4-.1-.8-.3-1.1-.4-.3-.1-.5-.3-.7-.6-.2-.3-.3-.6-.3-1 0-.6.2-1.1.7-1.4.5-.3 1-.5 1.7-.5.4 0 .8.1 1.3.2.4.1.8.3 1.1.5l-.6 1.1c-.2.1-.5 0-.9-.1zM445.7 167.6c-.5.3-1 .5-1.6.5-.6 0-1-.2-1.4-.5-.4-.3-.5-.8-.5-1.4V163h-.9v-1.1h.9v-1.8h1.5v1.8h1.8v1.1h-1.8v2.9c0 .3.1.5.2.6.1.1.3.2.5.2s.5-.1.9-.3l.4 1.2zM451.5 161.9c.5.3.9.7 1.2 1.1.3.5.4 1.1.4 1.7 0 .6-.1 1.2-.4 1.7-.3.5-.7.9-1.2 1.2-.5.3-1.1.4-1.8.4s-1.3-.1-1.8-.4c-.5-.3-.9-.7-1.2-1.2-.3-.5-.4-1.1-.4-1.7 0-.6.1-1.2.4-1.7.3-.5.7-.9 1.2-1.1.5-.3 1.1-.4 1.8-.4s1.3.2 1.8.4zm-3.1 1.5c-.3.4-.5.8-.5 1.4 0 .6.2 1 .5 1.4.3.4.8.5 1.3.5s1-.2 1.3-.5c.3-.3.5-.8.5-1.4 0-.6-.2-1-.5-1.4-.3-.4-.8-.5-1.3-.5s-1 .1-1.3.5zM464.6 162.2c.4.4.6 1 .6 1.8v4h-1.6v-3.6c0-.5-.1-.8-.4-1.1-.3-.3-.6-.4-1-.4-.5 0-.9.2-1.2.5-.3.3-.4.8-.4 1.3v3.2H459v-3.6c0-.5-.1-.8-.4-1.1-.3-.3-.6-.4-1-.4-.5 0-.9.2-1.2.5-.3.3-.4.8-.4 1.3v3.2h-1.6v-6.4h1.6v1.2c.4-.8 1.2-1.2 2.3-1.2.6 0 1 .1 1.4.4.4.3.6.6.8 1.1.4-1 1.2-1.5 2.4-1.5.7.1 1.2.3 1.7.8zM468.3 159.1c.2.2.3.4.3.7 0 .3-.1.5-.3.7-.2.2-.4.3-.6.3-.2 0-.5-.1-.6-.3-.1-.2-.3-.4-.3-.7 0-.3.1-.5.3-.7.2-.2.4-.3.6-.3.2 0 .5.1.6.3zm-1.4 2.5h1.6v6.4h-1.6v-6.4zM473.3 162.9c-.3-.1-.6-.2-.9-.2-.3 0-.5 0-.6.1-.1.1-.2.2-.2.4s.1.4.3.5c.2.1.5.2.9.3.4.1.8.3 1.1.4.3.1.5.3.8.6.2.3.3.6.3 1 0 .6-.2 1.1-.7 1.4-.5.3-1.1.5-1.8.5-.5 0-1-.1-1.5-.2-.5-.2-.9-.4-1.2-.7l.5-1.1c.3.2.6.4 1 .6.4.1.8.2 1.1.2.3 0 .5 0 .7-.2.2-.1.3-.2.3-.5 0-.2-.1-.4-.3-.5-.2-.1-.5-.2-1-.4-.4-.1-.8-.3-1.1-.4-.3-.1-.5-.3-.7-.6-.2-.3-.3-.6-.3-1 0-.6.2-1.1.7-1.4.5-.3 1-.5 1.7-.5.4 0 .8.1 1.3.2.4.1.8.3 1.1.5l-.6 1.1c-.3.1-.6 0-.9-.1zM480 168v-.8c-.2.3-.5.5-.9.6-.4.1-.8.2-1.2.2-.4 0-.8-.1-1.2-.3-.3-.2-.6-.4-.8-.7-.2-.3-.3-.6-.3-1 0-.6.2-1.1.6-1.4.4-.3 1-.5 1.8-.5h1.9v-.1c0-.4-.1-.7-.4-.9-.2-.2-.6-.3-1.1-.3-.6 0-1.2.2-1.9.6l-.6-1.1c.5-.3 1-.5 1.4-.6.4-.1.9-.2 1.4-.2.8 0 1.5.2 1.9.6.5.4.7 1 .7 1.7v4.2H480zm-.6-1.4c.3-.2.5-.5.5-.8v-.6h-1.6c-.4 0-.7.1-.9.2-.2.1-.3.3-.3.6s.1.5.3.6c.2.1.5.2.8.2.5.1.9 0 1.2-.2zM487 167.6c-.5.3-1 .5-1.6.5-.6 0-1-.2-1.4-.5-.4-.3-.5-.8-.5-1.4V163h-.9v-1.1h.9v-1.8h1.5v1.8h1.8v1.1H485v2.9c0 .3.1.5.2.6.1.1.3.2.5.2s.5-.1.9-.3l.4 1.2zM489.7 159.1c.2.2.3.4.3.7 0 .3-.1.5-.3.7-.2.2-.4.3-.6.3-.2 0-.5-.1-.6-.3-.1-.2-.3-.4-.3-.7 0-.3.1-.5.3-.7.2-.2.4-.3.6-.3.2 0 .4.1.6.3zm-1.4 2.5h1.6v6.4h-1.6v-6.4zM496.3 161.9c.5.3.9.7 1.2 1.1.3.4.4 1.1.4 1.7 0 .6-.1 1.2-.4 1.7-.3.5-.7.9-1.2 1.2-.5.3-1.1.4-1.8.4s-1.3-.1-1.8-.4c-.5-.3-.9-.7-1.2-1.2-.3-.5-.4-1.1-.4-1.7 0-.6.1-1.2.4-1.7.3-.5.7-.9 1.2-1.1.5-.3 1.1-.4 1.8-.4s1.3.2 1.8.4zm-3.1 1.5c-.3.4-.5.8-.5 1.4 0 .6.2 1 .5 1.4.3.4.8.5 1.3.5s1-.2 1.3-.5c.3-.4.5-.8.5-1.4 0-.6-.2-1-.5-1.4-.3-.4-.8-.5-1.3-.5s-.9.1-1.3.5zM504.9 162.2c.4.4.6 1 .6 1.8v4H504v-3.6c0-.4-.1-.8-.4-1.1-.3-.3-.6-.4-1-.4-.5 0-.9.2-1.2.5-.3.3-.5.8-.5 1.3v3.2h-1.6v-6.4h1.6v1.2c.4-.8 1.2-1.2 2.3-1.3.7.1 1.3.3 1.7.8z"/>
        </g>
        <g fill="#3B3769" fill-rule="nonzero">
            <path d="M420 250.3h5.8v1.4h-4.2v2.3h3.8v1.4h-3.8v3.3H420zM432.9 252.2v6.4h-1.6v-1.2c-.4.8-1.2 1.2-2.2 1.2-.7 0-1.3-.2-1.7-.7-.4-.5-.6-1-.6-1.8v-4h1.6v3.6c0 .4.1.8.4 1.1.3.3.6.4 1 .4.5 0 .9-.2 1.2-.5.3-.3.4-.8.4-1.3v-3.2h1.5zM434.9 249.8h1.6v8.9h-1.6zM438.5 249.8h1.6v8.9h-1.6zM447.8 253.6c-.5 0-.9.2-1.3.5-.3.4-.5.8-.5 1.4 0 .6.2 1 .5 1.4.3.4.7.5 1.3.5.8 0 1.3-.3 1.7-.8l1 .8c-.3.4-.7.7-1.1 1-.4.3-1 .3-1.6.3-.6 0-1.2-.1-1.7-.4-.5-.3-.9-.7-1.1-1.1-.3-.5-.4-1.1-.4-1.7 0-.6.1-1.2.4-1.7.3-.5.7-.9 1.2-1.2.5-.3 1.1-.4 1.7-.4.6 0 1.1.1 1.6.3.5.2.8.5 1.1.9l-.9.9c-.7-.5-1.2-.7-1.9-.7zM457.7 252.2v6.4h-1.6v-1.2c-.4.8-1.2 1.2-2.2 1.2-.7 0-1.3-.2-1.7-.7-.4-.5-.6-1-.6-1.8v-4h1.6v3.6c0 .4.1.8.4 1.1.3.3.6.4 1 .4.5 0 .9-.2 1.2-.5.3-.3.4-.8.4-1.3v-3.2h1.5zM462.5 253.6c-.3-.1-.6-.2-.9-.2-.3 0-.5 0-.6.1-.1.1-.2.2-.2.4s.1.4.3.5c.2.1.5.2.9.3.4.1.8.3 1.1.4.3.1.5.3.8.6.3.3.3.6.3 1 0 .6-.2 1.1-.7 1.4-.5.3-1.1.5-1.8.5-.5 0-1-.1-1.5-.2-.5-.2-.9-.4-1.2-.7l.5-1.1c.3.2.6.4 1 .6.4.1.8.2 1.1.2.3 0 .5-.1.7-.2.2-.1.3-.2.3-.5 0-.2-.1-.4-.3-.5-.2-.1-.5-.2-1-.4-.4-.1-.8-.3-1.1-.4-.3-.1-.5-.3-.7-.6-.2-.3-.3-.6-.3-1 0-.6.2-1.1.7-1.4.5-.3 1-.5 1.7-.5.4 0 .8.1 1.3.2.4.1.8.3 1.1.5l-.6 1.1c-.2.1-.6 0-.9-.1zM469.2 258.3c-.5.3-1 .5-1.6.5-.6 0-1-.2-1.4-.5-.4-.3-.5-.8-.5-1.4v-3.2h-.9v-1.1h.9v-1.8h1.5v1.8h1.8v1.1h-1.8v2.9c0 .3.1.5.2.6.1.1.3.2.5.2s.5-.1.9-.3l.4 1.2zM474.9 252.6c.5.3.9.7 1.2 1.1.3.5.4 1.1.4 1.7 0 .6-.1 1.2-.4 1.7-.3.5-.7.9-1.2 1.2-.5.3-1.1.4-1.8.4s-1.3-.1-1.8-.4c-.5-.3-.9-.7-1.2-1.2-.3-.5-.4-1.1-.4-1.7 0-.6.1-1.2.4-1.7.3-.5.7-.9 1.2-1.1.5-.3 1.1-.4 1.8-.4s1.3.1 1.8.4zm-3 1.5c-.3.4-.5.8-.5 1.4 0 .6.2 1 .5 1.4.3.4.8.5 1.3.5s1-.2 1.3-.5c.3-.4.5-.8.5-1.4 0-.6-.2-1-.5-1.4-.3-.4-.8-.5-1.3-.5-.6-.1-1 .1-1.3.5zM488 252.9c.4.4.6 1 .6 1.8v4H487v-3.6c0-.5-.1-.8-.4-1.1-.3-.3-.6-.4-1-.4-.5 0-.9.2-1.2.5-.3.3-.4.8-.4 1.3v3.2h-1.6V255c0-.5-.1-.8-.4-1.1-.3-.3-.6-.4-1-.4-.5 0-.9.2-1.2.5-.3.3-.4.8-.4 1.3v3.2h-1.6v-6.4h1.6v1.2c.4-.8 1.2-1.2 2.3-1.2.6 0 1 .1 1.4.4.4.3.6.6.8 1.1.4-1 1.2-1.5 2.4-1.5.7.1 1.3.3 1.7.8zM493.4 249.8h1.6v8.9h-1.6zM501.9 253.1c.5.6.8 1.4.8 2.5v.5H498c.1.5.3.8.6 1.1.3.3.7.4 1.2.4.3 0 .6-.1.9-.2.3-.1.6-.3.8-.5l.8.9c-.3.4-.7.6-1.2.8-.5.2-1 .3-1.5.3-.7 0-1.2-.1-1.7-.4-.5-.3-.9-.7-1.2-1.1-.3-.5-.4-1.1-.4-1.7 0-.6.1-1.2.4-1.7.3-.5.7-.9 1.2-1.2.5-.3 1.1-.4 1.7-.4 1.1-.2 1.8.1 2.3.7zm-.6 1.9c0-.5-.2-.8-.5-1.1-.3-.3-.7-.4-1.2-.4s-.8.1-1.1.4c-.3.3-.5.7-.6 1.1h3.4zM502.9 252.3h1.6l1.7 4.9 1.6-4.9h1.6l-2.4 6.4h-1.6zM515 253.1c.5.6.8 1.4.8 2.5v.5h-4.7c.1.5.3.8.6 1.1.3.3.7.4 1.2.4.3 0 .6-.1.9-.2.3-.1.6-.3.8-.5l.8.9c-.3.4-.7.6-1.2.8-.5.2-1 .3-1.5.3-.7 0-1.2-.1-1.7-.4-.5-.3-.9-.7-1.2-1.1-.3-.5-.4-1.1-.4-1.7 0-.6.1-1.2.4-1.7.3-.5.7-.9 1.2-1.2.5-.3 1.1-.4 1.7-.4 1.1-.2 1.8.1 2.3.7zm-.6 1.9c0-.5-.2-.8-.5-1.1-.3-.3-.7-.4-1.2-.4s-.8.1-1.1.4c-.3.3-.5.7-.6 1.1h3.4zM517.2 249.8h1.6v8.9h-1.6z"/>
        </g>
    </g>
</svg>
