<svg xmlns="http://www.w3.org/2000/svg" width="334" height="338" viewBox="0 0 334 338" xmlns:xlink="http://www.w3.org/1999/xlink">
  <defs>
    <rect id="b" width="254" height="250" y="38" rx="38"/>
    <filter id="a" width="151.2%" height="152%" x="-25.6%" y="-22%" filterUnits="objectBoundingBox">
      <feOffset dy="10" in="SourceAlpha" result="shadowOffsetOuter1"/>
      <feGaussianBlur stdDeviation="20" in="shadowOffsetOuter1" result="shadowBlurOuter1"/>
      <feColorMatrix values="0 0 0 0 0.440703533 0 0 0 0 0.503310129 0 0 0 0 0.68486926 0 0 0 0.384454257 0" in="shadowBlurOuter1"/>
    </filter>
    <filter id="c" width="135.4%" height="136%" x="-17.7%" y="-14%" filterUnits="objectBoundingBox">
      <feOffset dy="-10" in="SourceAlpha" result="shadowOffsetInner1"/>
      <feComposite in="shadowOffsetInner1" in2="SourceAlpha" operator="arithmetic" k2="-1" k3="1" result="shadowInnerInner1"/>
      <feColorMatrix values="0 0 0 0 0.403921569 0 0 0 0 0.458823529 0 0 0 0 0.631372549 0 0 0 0.06 0" in="shadowInnerInner1"/>
    </filter>
    <linearGradient id="d" x1=".01%" x2="99.993%" y1="49.999%" y2="49.999%">
      <stop stop-color="#211E39" offset="0%"/>
      <stop stop-color="#6A7599" offset="100%"/>
    </linearGradient>
    <linearGradient id="e" x1="21.895%" x2="77.978%" y1="121.561%" y2="8.499%">
      <stop stop-color="#201C38" offset="0%"/>
      <stop stop-color="#3E396B" offset="100%"/>
    </linearGradient>
    <linearGradient id="f" x1="0%" y1="100%" y2="0%">
      <stop stop-color="#A4AECF" offset="0%"/>
      <stop stop-color="#211E39" offset="100%"/>
    </linearGradient>
  </defs>
  <g fill="none" fill-rule="evenodd" transform="translate(40)">
    <use fill="black" filter="url(#a)" xlink:href="#b"/>
    <use fill="#FFFFFF" xlink:href="#b"/>
    <use fill="black" filter="url(#c)" xlink:href="#b"/>
    <g transform="translate(43 90)">
      <g fill-rule="nonzero" transform="translate(40)">
        <path fill="url(#d)" d="M43.4,35.4 C45.4,35.4 47.3,35 49.2,34.4 L52.4,39.9 L54.6,43.7 C55.2,44.8 56.3,45.4 57.5,45.4 C58.1,45.4 58.6,45.3 59.2,45 C60.8,44.1 61.3,42 60.4,40.4 L58.2,36.6 L55,31 C58.7,27.8 61.1,23 61.1,17.7 C61.1,8 53.2,0.1 43.5,0.1 C33.8,0.1 25.8,8 25.8,17.8 C25.8,27.6 33.7,35.4 43.4,35.4 Z M43.4,6.8 C49.4,6.8 54.3,11.7 54.3,17.7 C54.3,23.7 49.4,28.6 43.4,28.6 C37.4,28.6 32.5,23.7 32.5,17.7 C32.5,11.7 37.4,6.8 43.4,6.8 Z"/>
        <path fill="url(#e)" d="M69.3,44.8 C60.7,44.8 53.6,51 52,59.1 L45.7,59.1 L41.3,59.1 C39.5,59.1 38,60.6 38,62.4 C38,64.2 39.5,65.7 41.3,65.7 L45.7,65.7 L52,65.7 C53.6,73.8 60.7,80 69.3,80 C79,80 86.9,72.1 86.9,62.4 C86.9,52.7 79,44.8 69.3,44.8 Z M69.3,73.4 C63.3,73.4 58.4,68.5 58.4,62.5 C58.4,56.5 63.3,51.6 69.3,51.6 C75.3,51.6 80.2,56.5 80.2,62.5 C80.2,68.5 75.3,73.4 69.3,73.4 Z M29.2,49.2 C32.9,52.4 35.3,57.1 35.2,62.5 C35.2,72.2 27.3,80.1 17.6,80.1 C7.9,80.1 0,72.3 0,62.5 C0,52.7 7.9,44.8 17.6,44.8 C19.7,44.8 21.6,45.2 23.4,45.8 L26.6,40.3 L28.8,36.5 C29.8,34.9 31.8,34.4 33.4,35.3 C35,36.3 35.5,38.3 34.6,39.9 L32.4,43.7 L29.2,49.2 Z M17.6,73.4 C23.7,73.4 28.6,68.5 28.5,62.5 C28.5,56.5 23.6,51.6 17.6,51.6 C11.6,51.6 6.7,56.5 6.7,62.5 C6.7,68.5 11.6,73.4 17.6,73.4 Z"/>
      </g>
      <path fill="#3E396B" d="M0.34,107.2 L4.132,107.2 L4.132,124 L0.34,124 L0.34,107.2 Z M19.384,112.288 C20.2400043,113.184004 20.668,114.383992 20.668,115.888 L20.668,124 L16.972,124 L16.972,116.968 C16.972,116.151996 16.7440023,115.508002 16.288,115.036 C15.8319977,114.563998 15.2120039,114.328 14.428,114.328 C13.5159954,114.344 12.7960026,114.659997 12.268,115.276 C11.7399974,115.892003 11.476,116.679995 11.476,117.64 L11.476,124 L7.78,124 L7.78,111.088 L11.476,111.088 L11.476,113.344 C12.3720045,111.775992 13.8599896,110.976 15.94,110.944 C17.3800072,110.944 18.5279957,111.391996 19.384,112.288 Z M29.908,113.956 C29.2199966,113.739999 28.6040027,113.632 28.06,113.632 C27.6119978,113.632 27.2520014,113.711999 26.98,113.872 C26.7079986,114.032001 26.572,114.271998 26.572,114.592 C26.572,114.944002 26.7559982,115.215999 27.124,115.408 C27.4920018,115.600001 28.0919958,115.815999 28.924,116.056 C29.8360046,116.328001 30.587997,116.595999 31.18,116.86 C31.772003,117.124001 32.2839978,117.515997 32.716,118.036 C33.1480022,118.556003 33.364,119.239996 33.364,120.088 C33.364,121.368006 32.8720049,122.363996 31.888,123.076 C30.9039951,123.788004 29.6440077,124.144 28.108,124.144 C27.0519947,124.144 26.0360049,123.988002 25.06,123.676 C24.0839951,123.363998 23.2360036,122.920003 22.516,122.344 L23.716,119.848 C24.3720033,120.360003 25.103996,120.755999 25.912,121.036 C26.720004,121.316001 27.4839964,121.456 28.204,121.456 C28.7000025,121.456 29.0959985,121.372001 29.392,121.204 C29.6880015,121.035999 29.836,120.784002 29.836,120.448 C29.836,120.079998 29.6480019,119.792001 29.272,119.584 C28.8959981,119.375999 28.2920042,119.152001 27.46,118.912 C26.5799956,118.655999 25.8480029,118.400001 25.264,118.144 C24.6799971,117.887999 24.1800021,117.500003 23.764,116.98 C23.3479979,116.459997 23.14,115.784004 23.14,114.952 C23.14,113.671994 23.6199952,112.680004 24.58,111.976 C25.5400048,111.271996 26.7559926,110.92 28.228,110.92 C29.1080044,110.92 29.9879956,111.043999 30.868,111.292 C31.7480044,111.540001 32.5479964,111.895998 33.268,112.36 L31.996,114.88 C31.2919965,114.479998 30.5960034,114.172001 29.908,113.956 Z M43.828,123.28 C43.3479976,123.568001 42.8160029,123.787999 42.232,123.94 C41.6479971,124.092001 41.060003,124.168 40.468,124.168 C39.267994,124.168 38.2920038,123.824003 37.54,123.136 C36.7879962,122.447997 36.412,121.464006 36.412,120.184 L36.412,114.208 L34.612,114.208 L34.612,111.664 L36.412,111.664 L36.412,108.112 L40.084,108.112 L40.084,111.664 L43.588,111.664 L43.588,114.232 L40.084,114.232 L40.084,119.56 C40.084,120.552005 40.4759961,121.048 41.26,121.048 C41.8040027,121.048 42.4039967,120.888002 43.06,120.568 L43.828,123.28 Z M53.548,124 L53.548,122.488 C53.1159978,123.032003 52.5560034,123.447999 51.868,123.736 C51.1799966,124.024001 50.3880045,124.168 49.492,124.168 C48.1319932,124.168 47.052004,123.796004 46.252,123.052 C45.451996,122.307996 45.052,121.336006 45.052,120.136 C45.052,118.919994 45.4799957,117.972003 46.336,117.292 C47.1920043,116.611997 48.4039922,116.264 49.972,116.248 L53.524,116.248 L53.524,116.008 C53.524,115.319997 53.2960023,114.788002 52.84,114.412 C52.3839977,114.035998 51.7160044,113.848 50.836,113.848 C49.635994,113.848 48.3560068,114.223996 46.996,114.976 L45.844,112.432 C46.8680051,111.919997 47.8279955,111.544001 48.724,111.304 C49.6200045,111.063999 50.6039946,110.944 51.676,110.944 C53.4040086,110.944 54.7439952,111.351996 55.696,112.168 C56.6480048,112.984004 57.1319999,114.119993 57.148,115.576 L57.172,124 L53.548,124 Z M52.516,120.976 C53.0760028,120.607998 53.4119994,120.144003 53.524,119.584 L53.524,118.432 L50.62,118.432 C49.8999964,118.432 49.3680017,118.547999 49.024,118.78 C48.6799983,119.012001 48.508,119.383997 48.508,119.896 C48.508,120.392002 48.6879982,120.787999 49.048,121.084 C49.4080018,121.380001 49.8999969,121.528 50.524,121.528 C51.2920038,121.528 51.9559972,121.344002 52.516,120.976 Z M71.968,112.288 C72.8240043,113.184004 73.252,114.383992 73.252,115.888 L73.252,124 L69.556,124 L69.556,116.968 C69.556,116.151996 69.3280023,115.508002 68.872,115.036 C68.4159977,114.563998 67.7960039,114.328 67.012,114.328 C66.0999954,114.344 65.3800026,114.659997 64.852,115.276 C64.3239974,115.892003 64.06,116.679995 64.06,117.64 L64.06,124 L60.364,124 L60.364,111.088 L64.06,111.088 L64.06,113.344 C64.9560045,111.775992 66.4439896,110.976 68.524,110.944 C69.9640072,110.944 71.1119957,111.391996 71.968,112.288 Z M84.436,123.28 C83.9559976,123.568001 83.4240029,123.787999 82.84,123.94 C82.2559971,124.092001 81.668003,124.168 81.076,124.168 C79.875994,124.168 78.9000038,123.824003 78.148,123.136 C77.3959962,122.447997 77.02,121.464006 77.02,120.184 L77.02,114.208 L75.22,114.208 L75.22,111.664 L77.02,111.664 L77.02,108.112 L80.692,108.112 L80.692,111.664 L84.196,111.664 L84.196,114.232 L80.692,114.232 L80.692,119.56 C80.692,120.552005 81.0839961,121.048 81.868,121.048 C82.4120027,121.048 83.0119967,120.888002 83.668,120.568 L84.436,123.28 Z M95.056,110.62 C94.0879952,110.307998 93.2600034,110.152 92.572,110.152 C91.9159967,110.152 91.3960019,110.271999 91.012,110.512 C90.6279981,110.752001 90.436,111.103998 90.436,111.568 C90.436,112.160003 90.7119972,112.611998 91.264,112.924 C91.8160028,113.236002 92.6679942,113.559998 93.82,113.896 C94.9720058,114.232002 95.9199963,114.567998 96.664,114.904 C97.4080037,115.240002 98.0439974,115.743997 98.572,116.416 C99.1000026,117.088003 99.364,117.975994 99.364,119.08 C99.364,120.152005 99.0800028,121.075996 98.512,121.852 C97.9439972,122.628004 97.164005,123.215998 96.172,123.616 C95.179995,124.016002 94.0520063,124.216 92.788,124.216 C91.4279932,124.216 90.0920066,123.976002 88.78,123.496 C87.4679934,123.015998 86.3320048,122.360004 85.372,121.528 L86.884,118.432 C87.7320042,119.200004 88.7079945,119.815998 89.812,120.28 C90.9160055,120.744002 91.9239954,120.976 92.836,120.976 C93.6200039,120.976 94.2319978,120.832001 94.672,120.544 C95.1120022,120.255999 95.332,119.840003 95.332,119.296 C95.332,118.863998 95.1840015,118.508001 94.888,118.228 C94.5919985,117.947999 94.2160023,117.720001 93.76,117.544 C93.3039977,117.367999 92.676004,117.168001 91.876,116.944 C90.7239942,116.623998 89.7840036,116.304002 89.056,115.984 C88.3279964,115.663998 87.7000026,115.176003 87.172,114.52 C86.6439974,113.863997 86.38,112.992005 86.38,111.904 C86.38,110.895995 86.6519973,110.012004 87.196,109.252 C87.7400027,108.491996 88.4999951,107.908002 89.476,107.5 C90.4520049,107.091998 91.5879935,106.888 92.884,106.888 C94.0360058,106.888 95.1719944,107.055998 96.292,107.392 C97.4120056,107.728002 98.4039957,108.175997 99.268,108.736 L97.804,111.88 C96.9399957,111.351997 96.0240048,110.932002 95.056,110.62 Z M112.24,112.768 C113.320005,113.968006 113.86,115.639989 113.86,117.784 C113.86,118.168002 113.852,118.463999 113.836,118.672 L104.572,118.672 C104.780001,119.488004 105.179997,120.123998 105.772,120.58 C106.364003,121.036002 107.075996,121.264 107.908,121.264 C108.516003,121.264 109.099997,121.148001 109.66,120.916 C110.220003,120.683999 110.723998,120.344002 111.172,119.896 L113.116,121.864 C112.459997,122.600004 111.664005,123.163998 110.728,123.556 C109.791995,123.948002 108.748006,124.144 107.596,124.144 C106.235993,124.144 105.048005,123.872003 104.032,123.328 C103.015995,122.783997 102.232003,122.016005 101.68,121.024 C101.127997,120.031995 100.852,118.888006 100.852,117.592 C100.852,116.279993 101.131997,115.124005 101.692,114.124 C102.252003,113.123995 103.035995,112.348003 104.044,111.796 C105.052005,111.243997 106.203994,110.968 107.5,110.968 C109.58001,110.968 111.159995,111.567994 112.24,112.768 Z M110.38,116.488 C110.348,115.639996 110.076003,114.960003 109.564,114.448 C109.051997,113.935997 108.372004,113.68 107.524,113.68 C106.723996,113.68 106.056003,113.931997 105.52,114.436 C104.983997,114.940003 104.644001,115.623996 104.5,116.488 L110.38,116.488 Z M123.772,124 L123.772,122.488 C123.339998,123.032003 122.780003,123.447999 122.092,123.736 C121.403997,124.024001 120.612004,124.168 119.716,124.168 C118.355993,124.168 117.276004,123.796004 116.476,123.052 C115.675996,122.307996 115.276,121.336006 115.276,120.136 C115.276,118.919994 115.703996,117.972003 116.56,117.292 C117.416004,116.611997 118.627992,116.264 120.196,116.248 L123.748,116.248 L123.748,116.008 C123.748,115.319997 123.520002,114.788002 123.064,114.412 C122.607998,114.035998 121.940004,113.848 121.06,113.848 C119.859994,113.848 118.580007,114.223996 117.22,114.976 L116.068,112.432 C117.092005,111.919997 118.051996,111.544001 118.948,111.304 C119.844004,111.063999 120.827995,110.944 121.9,110.944 C123.628009,110.944 124.967995,111.351996 125.92,112.168 C126.872005,112.984004 127.356,114.119993 127.372,115.576 L127.396,124 L123.772,124 Z M122.74,120.976 C123.300003,120.607998 123.635999,120.144003 123.748,119.584 L123.748,118.432 L120.844,118.432 C120.123996,118.432 119.592002,118.547999 119.248,118.78 C118.903998,119.012001 118.732,119.383997 118.732,119.896 C118.732,120.392002 118.911998,120.787999 119.272,121.084 C119.632002,121.380001 120.123997,121.528 120.748,121.528 C121.516004,121.528 122.179997,121.344002 122.74,120.976 Z M136.036,111.592 C136.756004,111.175998 137.595995,110.96 138.556,110.944 L138.556,114.424 C138.427999,114.408 138.236001,114.4 137.98,114.4 C136.843994,114.4 135.944003,114.707997 135.28,115.324 C134.615997,115.940003 134.284,116.759995 134.284,117.784 L134.284,124 L130.588,124 L130.588,111.088 L134.284,111.088 L134.284,113.416 C134.732002,112.615996 135.315996,112.008002 136.036,111.592 Z M146.308,114.112 C145.379995,114.112 144.624003,114.427997 144.04,115.06 C143.455997,115.692003 143.164,116.527995 143.164,117.568 C143.164,118.608005 143.451997,119.451997 144.028,120.1 C144.604003,120.748003 145.339996,121.072 146.236,121.072 C147.580007,121.072 148.579997,120.568005 149.236,119.56 L151.78,121.288 C151.235997,122.200005 150.472005,122.903998 149.488,123.4 C148.503995,123.896002 147.356007,124.144 146.044,124.144 C144.747994,124.144 143.604005,123.872003 142.612,123.328 C141.619995,122.783997 140.848003,122.016005 140.296,121.024 C139.743997,120.031995 139.468,118.888006 139.468,117.592 C139.468,116.279993 139.743997,115.124005 140.296,114.124 C140.848003,113.123995 141.623995,112.348003 142.624,111.796 C143.624005,111.243997 144.779993,110.968 146.092,110.968 C147.324006,110.968 148.419995,111.203998 149.38,111.676 C150.340005,112.148002 151.107997,112.815996 151.684,113.68 L149.188,115.48 C148.451996,114.567995 147.492006,114.112 146.308,114.112 Z M165.832,112.288 C166.688004,113.184004 167.116,114.383992 167.116,115.888 L167.116,124 L163.42,124 L163.42,116.968 C163.42,116.151996 163.192002,115.508002 162.736,115.036 C162.279998,114.563998 161.660004,114.328 160.876,114.328 C159.963995,114.344 159.240003,114.659997 158.704,115.276 C158.167997,115.892003 157.9,116.679995 157.9,117.64 L157.9,124 L154.204,124 L154.204,106.192 L157.9,106.192 L157.9,113.368 C158.796004,111.783992 160.28399,110.976 162.364,110.944 C163.820007,110.944 164.975996,111.391996 165.832,112.288 Z"/>
      <text fill="#8994C6" font-family="Montserrat-Regular, Montserrat" font-size="16">
        <tspan x="58.028" y="148">for iOS</tspan>
      </text>
    </g>
    <g transform="translate(217)">
      <circle cx="37.5" cy="37.5" r="37.5" fill="url(#f)"/>
      <path fill="#FFFFFF" fill-rule="nonzero" d="M20.5679966,27.2142068 C20.5679966,27.8834403 20.3481056,28.4245633 19.9102356,28.8394881 C19.4723657,29.2544129 18.9063854,29.4628313 18.2142068,29.4628313 C17.5908636,29.4628313 17.0669494,29.2505887 16.6405521,28.8222792 C16.2122426,28.3958819 16,27.8604951 16,27.2142068 C16,26.5679185 16.219891,26.0382679 16.6577609,25.6233432 C17.0956308,25.2065063 17.638666,25 18.2830422,25 C18.9293306,25 19.4704536,25.2065063 19.9083236,25.6233432 C20.3481056,26.0382679 20.5679966,26.5698305 20.5679966,27.2142068 Z M20.1530718,49.0484273 L16.4149248,49.0484273 L16.4149248,32.2315458 L20.1511597,32.2315458 L20.1511597,49.0484273 L20.1530718,49.0484273 Z M45.0638542,37.1456317 C45.0638542,40.6753603 44.1651692,43.5588006 42.3658872,45.7959525 C40.4289343,48.2185777 37.7405278,49.4289343 34.3044919,49.4289343 C31.0520171,49.4289343 28.4687759,48.2415229 26.5547681,45.864788 C24.7765191,43.6735263 23.8893067,40.9048118 23.8893067,37.5605565 C23.8893067,34.1474657 24.8109369,31.2984431 26.6580213,29.0134888 C28.6408645,26.5698305 31.2929412,25.3460893 34.6142514,25.3460893 C37.8896712,25.3460893 40.4843851,26.5220282 42.4003049,28.8758179 C44.1766418,31.0441344 45.0638542,33.8013764 45.0638542,37.1456317 Z M41.0847831,37.2833026 C41.0847831,34.9773152 40.5666052,32.9925599 39.5283372,31.3309488 C38.3294533,29.3481056 36.644897,28.3557279 34.4765805,28.3557279 C32.2394285,28.3557279 30.5204545,29.3710507 29.3215705,31.3997842 C28.3062477,33.0613954 27.7976303,35.0805684 27.7976303,37.4573033 C27.7976303,39.7881479 28.3158082,41.7824637 29.3540762,43.4421628 C30.5759053,45.4269181 32.2719342,46.4173836 34.4402507,46.4173836 C36.6774026,46.4173836 38.3963766,45.4020608 39.5952606,43.3733273 C40.5895503,41.7117162 41.0847831,39.6829827 41.0847831,37.2833026 L41.0847831,37.2833026 Z M62.3300781,42.507148 C62.3300781,44.4919033 61.6378995,46.105712 60.2535422,47.3504863 C58.7315141,48.7118984 56.6090879,49.3926045 53.8862636,49.3926045 C51.3718578,49.3926045 49.3545969,48.9088443 47.8306566,47.9394118 L48.6949239,44.82652 C50.3335899,45.7959525 52.1309598,46.2797127 54.09277,46.2797127 C55.5000724,46.2797127 56.5957032,45.9623048 57.3796624,45.3274891 C58.1636217,44.6926733 58.5556013,43.8456149 58.5556013,42.7844018 C58.5556013,41.8379145 58.2324571,41.0424827 57.5861688,40.3961943 C56.9398804,39.749906 55.8671948,39.149508 54.3681117,38.5969123 C50.2857875,37.0748842 48.2436693,34.8492048 48.2436693,31.9179621 C48.2436693,30.0039544 48.9645294,28.4360359 50.4062495,27.2122947 C51.8479697,25.9904656 53.7562411,25.3785949 56.1329761,25.3785949 C58.2554022,25.3785949 60.0202666,25.7476294 61.427569,26.4856983 L60.4963784,29.5316667 C59.1808566,28.816543 57.6932461,28.4589811 56.0335471,28.4589811 C54.7180253,28.4589811 53.6912299,28.7821252 52.955073,29.4284136 C52.3317299,30.0058665 52.0200583,30.7095177 52.0200583,31.5393672 C52.0200583,32.4629094 52.3776202,33.2239235 53.0927439,33.8224094 C53.7160871,34.3750051 54.8461357,34.9754031 56.4828896,35.6216915 C58.49059,36.4285958 59.9648158,37.3750832 60.9113031,38.4592414 C61.8577905,39.5433997 62.3300781,40.8933392 62.3300781,42.507148 L62.3300781,42.507148 Z"/>
    </g>
  </g>
</svg>
