<svg xmlns="http://www.w3.org/2000/svg" width="51" height="50" viewBox="0 0 51 50">
  <defs>
    <linearGradient id="a" x1="0%" y1="100%" y2="0%">
      <stop stop-color="#FFE994" offset="0%"/>
      <stop stop-color="#FFD32B" offset="100%"/>
    </linearGradient>
  </defs>
  <g fill="none" fill-rule="evenodd">
    <path fill="url(#a)" d="M6.66575081,0 L43.9570941,0 C47.6278647,0 50.6228449,2.94206855 50.6228449,6.58174098 L50.6228449,43.418259 C50.6228449,47.0427662 47.6432236,50 43.9570941,50 L6.66575081,50 C2.9949802,50 0,47.0579315 0,43.418259 L0,6.56657567 C0,2.94206855 2.97962133,0 6.66575081,0 Z"/>
    <g fill="#3E396B" fill-rule="nonzero" transform="translate(10 10)">
      <path d="M15.3195402 12.3510467C16.0255098 12.3510467 16.6961809 12.2114868 17.3668521 12.0021471L18.4964034 13.921095 19.27297 15.2469136C19.4847608 15.6307032 19.8730441 15.8400429 20.2966259 15.8400429 20.5084168 15.8400429 20.6849092 15.805153 20.8967 15.7004831 21.4614757 15.3864734 21.6379681 14.6537842 21.3202818 14.0955448L20.5437152 12.7697262 19.4141639 10.8158884C20.7202076 9.69940955 21.5673712 8.02469136 21.5673712 6.17552335 21.5673712 2.79119699 18.7787912.0348899624 15.3548387.0348899624 11.9308862.0348899624 9.10700779 2.79119699 9.10700779 6.21041331 9.10700779 9.62962963 11.8955877 12.3510467 15.3195402 12.3510467zM15.3195402 2.37251744C17.437449 2.37251744 19.1670745 4.0821256 19.1670745 6.17552335 19.1670745 8.2689211 17.437449 9.97852925 15.3195402 9.97852925 13.2016314 9.97852925 11.4720059 8.2689211 11.4720059 6.17552335 11.4720059 4.0821256 13.2016314 2.37251744 15.3195402 2.37251744zM24.4618465 15.6307032C21.4261772 15.6307032 18.9199852 17.7938808 18.3552095 20.6199678L16.1314053 20.6199678 14.5782722 20.6199678C13.9428995 20.6199678 13.4134223 21.1433172 13.4134223 21.7713366 13.4134223 22.3993559 13.9428995 22.9227053 14.5782722 22.9227053L16.1314053 22.9227053 18.3552095 22.9227053C18.9199852 25.7487923 21.4261772 27.9119699 24.4618465 27.9119699 27.885799 27.9119699 30.6743789 25.1556629 30.6743789 21.7713366 30.6743789 18.3870102 27.885799 15.6307032 24.4618465 15.6307032zM24.4618465 25.6092324C22.3439377 25.6092324 20.6143122 23.8996243 20.6143122 21.8062265 20.6143122 19.7128288 22.3439377 18.0032206 24.4618465 18.0032206 26.5797553 18.0032206 28.3093808 19.7128288 28.3093808 21.8062265 28.3093808 23.8996243 26.5797553 25.6092324 24.4618465 25.6092324zM10.3071561 17.1658615C11.6131999 18.2823403 12.4603634 19.9221685 12.4250649 21.8062265 12.4250649 25.1905529 9.63648498 27.9468599 6.21253244 27.9468599 2.7885799 27.9468599 0 25.2254428 0 21.8062265 0 18.3870102 2.7885799 15.6307032 6.21253244 15.6307032 6.95380052 15.6307032 7.62447164 15.770263 8.25984427 15.9796028L9.38939562 14.0606549 10.1659622 12.7348363C10.518947 12.1765969 11.2249166 12.0021471 11.7896923 12.3161567 12.3544679 12.6650564 12.5309603 13.3628556 12.213274 13.921095L11.4367075 15.2469136 10.3071561 17.1658615zM6.21253244 25.6092324C8.36573971 25.6092324 10.0953652 23.8996243 10.0600667 21.8062265 10.0600667 19.7128288 8.33044123 18.0032206 6.21253244 18.0032206 4.09462366 18.0032206 2.36499815 19.7128288 2.36499815 21.8062265 2.36499815 23.8996243 4.09462366 25.6092324 6.21253244 25.6092324z"/>
    </g>
  </g>
</svg>
