<?xml version="1.0" encoding="UTF-8"?>
<svg width="375px" height="237px" viewBox="0 0 375 237" version="1.1" xmlns="http://www.w3.org/2000/svg" xmlns:xlink="http://www.w3.org/1999/xlink">
    <!-- Generator: Sketch 45.2 (43514) - http://www.bohemiancoding.com/sketch -->
    <title>instantsearch-ios-components</title>
    <desc>Created with Sketch.</desc>
    <defs>
        <circle id="path-1" cx="14" cy="14" r="14"></circle>
        <filter x="-57.1%" y="-39.3%" width="214.3%" height="221.4%" filterUnits="objectBoundingBox" id="filter-2">
            <feMorphology radius="0.5" operator="dilate" in="SourceAlpha" result="shadowSpreadOuter1"></feMorphology>
            <feOffset dx="0" dy="3" in="shadowSpreadOuter1" result="shadowOffsetOuter1"></feOffset>
            <feGaussianBlur stdDeviation="0.5" in="shadowOffsetOuter1" result="shadowBlurOuter1"></feGaussianBlur>
            <feComposite in="shadowBlurOuter1" in2="SourceAlpha" operator="out" result="shadowBlurOuter1"></feComposite>
            <feColorMatrix values="0 0 0 0 0   0 0 0 0 0   0 0 0 0 0  0 0 0 0.1 0" type="matrix" in="shadowBlurOuter1" result="shadowMatrixOuter1"></feColorMatrix>
            <feMorphology radius="0.5" operator="dilate" in="SourceAlpha" result="shadowSpreadOuter2"></feMorphology>
            <feOffset dx="0" dy="1" in="shadowSpreadOuter2" result="shadowOffsetOuter2"></feOffset>
            <feGaussianBlur stdDeviation="0.5" in="shadowOffsetOuter2" result="shadowBlurOuter2"></feGaussianBlur>
            <feComposite in="shadowBlurOuter2" in2="SourceAlpha" operator="out" result="shadowBlurOuter2"></feComposite>
            <feColorMatrix values="0 0 0 0 0   0 0 0 0 0   0 0 0 0 0  0 0 0 0.16 0" type="matrix" in="shadowBlurOuter2" result="shadowMatrixOuter2"></feColorMatrix>
            <feMorphology radius="0.5" operator="dilate" in="SourceAlpha" result="shadowSpreadOuter3"></feMorphology>
            <feOffset dx="0" dy="3" in="shadowSpreadOuter3" result="shadowOffsetOuter3"></feOffset>
            <feGaussianBlur stdDeviation="4" in="shadowOffsetOuter3" result="shadowBlurOuter3"></feGaussianBlur>
            <feComposite in="shadowBlurOuter3" in2="SourceAlpha" operator="out" result="shadowBlurOuter3"></feComposite>
            <feColorMatrix values="0 0 0 0 0   0 0 0 0 0   0 0 0 0 0  0 0 0 0.15 0" type="matrix" in="shadowBlurOuter3" result="shadowMatrixOuter3"></feColorMatrix>
            <feMerge>
                <feMergeNode in="shadowMatrixOuter1"></feMergeNode>
                <feMergeNode in="shadowMatrixOuter2"></feMergeNode>
                <feMergeNode in="shadowMatrixOuter3"></feMergeNode>
            </feMerge>
        </filter>
        <path d="M15.5,0 L327.25,0 L337.43875,0 C337.651,0 337.8635,0 338.07575,0.00125 C338.25475,0.00225 338.43325,0.00425 338.61225,0.00925 C339.00175,0.01975 339.39475,0.04275 339.78025,0.112 C340.171,0.18225 340.53475,0.297 340.89,0.47775 C341.239,0.65525 341.55825,0.8875 341.83525,1.1645 C342.11225,1.44125 342.34425,1.76075 342.522,2.10975 C342.703,2.465 342.81775,2.829 342.888,3.22025 C342.95725,3.6055 342.98,3.99825 342.9905,4.38775 C342.9955,4.56625 342.9975,4.74525 342.99875,4.924 C343,5.1365 342.99975,5.34875 342.99975,5.561 L343,8 L343,6.7805 L343,21.219375 L343,20 L342.99975,22.43875 C342.99975,22.651 343,22.8635 342.99875,23.07575 C342.9975,23.25475 342.9955,23.4335 342.9905,23.61225 C342.98,24.00175 342.95725,24.3945 342.888,24.77975 C342.81775,25.17075 342.703,25.535 342.522,25.89025 C342.34425,26.23925 342.11225,26.5585 341.83525,26.8355 C341.55825,27.1125 341.239,27.3445 340.89,27.52225 C340.53475,27.703 340.171,27.81775 339.78025,27.888 C339.39475,27.95725 339.00175,27.98025 338.61225,27.99075 C338.43325,27.9955 338.25475,27.99775 338.07575,27.99875 C337.8635,28 337.651,27.99975 337.43875,27.99975 L335,28 L336.219375,28 L327.25,28 L15.5,28 L6.780625,28 L8,28 L5.56125,27.99975 C5.349,27.99975 5.1365,28 4.92425,27.99875 C4.74525,27.99775 4.56675,27.9955 4.38775,27.99075 C3.99825,27.98025 3.60525,27.95725 3.21975,27.888 C2.829,27.81775 2.46525,27.703 2.11,27.52225 C1.761,27.3445 1.44175,27.1125 1.16475,26.8355 C0.88775,26.5585 0.65575,26.23925 0.478,25.89025 C0.297,25.535 0.18225,25.17075 0.112,24.77975 C0.04275,24.3945 0.02,24.00175 0.0095,23.61225 C0.0045,23.4335 0.0025,23.25475 0.00125,23.07575 C0,22.8635 0.00025,22.651 0.00025,22.43875 L0,20 L0,21.219375 L0,6.7805 L0,8 L0.00025,5.561 C0.00025,5.34875 0,5.1365 0.00125,4.924 C0.0025,4.74525 0.0045,4.56625 0.0095,4.38775 C0.02,3.99825 0.04275,3.6055 0.112,3.22025 C0.18225,2.829 0.297,2.465 0.478,2.10975 C0.65575,1.76075 0.88775,1.44125 1.16475,1.1645 C1.44175,0.8875 1.761,0.65525 2.11,0.47775 C2.46525,0.297 2.829,0.18225 3.21975,0.112 C3.60525,0.04275 3.99825,0.01975 4.38775,0.00925 C4.56675,0.00425 4.74525,0.00225 4.92425,0.00125 C5.1365,0 5.349,0 5.56125,0 L15.5,0 Z" id="path-3"></path>
        <path d="M15.5,0 L327.25,0 L337.43875,0 C338.25475,0.00225 338.43325,0.00425 338.61225,0.00925 C339.00175,0.01975 339.39475,0.04275 339.78025,0.112 C340.171,0.18225 340.53475,0.297 340.89,0.47775 C341.239,0.65525 341.55825,0.8875 341.83525,1.1645 C342.11225,1.44125 342.34425,1.76075 342.522,2.10975 C342.703,2.465 342.81775,2.829 342.888,3.22025 C342.95725,3.6055 342.98,3.99825 342.9905,4.38775 C342.9955,4.56625 342.9975,4.74525 342.99875,4.924 C343,5.1365 342.99975,5.34875 342.99975,5.561 L343,8 L343,6.7805 L343,21.219375 L343,20 L342.99975,22.43875 C342.99975,22.651 343,22.8635 342.99875,23.07575 C342.9975,23.25475 342.9955,23.4335 342.9905,23.61225 C342.98,24.00175 342.95725,24.3945 342.888,24.77975 C342.81775,25.17075 342.703,25.535 342.522,25.89025 C342.34425,26.23925 342.11225,26.5585 341.83525,26.8355 C341.55825,27.1125 341.239,27.3445 340.89,27.52225 C340.53475,27.703 340.171,27.81775 339.78025,27.888 C339.39475,27.95725 339.00175,27.98025 338.61225,27.99075 C337.8635,28 337.651,27.99975 337.43875,27.99975 L335,28 L336.219375,28 L327.25,28 L15.5,28 L6.780625,28 L8,28 L5.56125,27.99975 C4.74525,27.99775 4.56675,27.9955 4.38775,27.99075 C3.99825,27.98025 3.60525,27.95725 3.21975,27.888 C2.829,27.81775 2.46525,27.703 2.11,27.52225 C1.761,27.3445 1.44175,27.1125 1.16475,26.8355 C0.88775,26.5585 0.65575,26.23925 0.478,25.89025 C0.297,25.535 0.18225,25.17075 0.112,24.77975 C0.04275,24.3945 0.02,24.00175 0.0095,23.61225 C0.0045,23.4335 0.0025,23.25475 0.00125,23.07575 C0,22.8635 0.00025,22.651 0.00025,22.43875 L0,20 L0,21.219375 L0,6.7805 L0,8 L0.00025,5.561 C0.00025,5.34875 0,5.1365 0.00125,4.924 C0.0025,4.74525 0.0045,4.56625 0.0095,4.38775 C0.02,3.99825 0.04275,3.6055 0.112,3.22025 C0.18225,2.829 0.297,2.465 0.478,2.10975 C0.65575,1.76075 0.88775,1.44125 1.16475,1.1645 C1.44175,0.8875 1.761,0.65525 2.11,0.47775 C2.46525,0.297 2.829,0.18225 3.21975,0.112 C3.60525,0.04275 3.99825,0.01975 4.38775,0.00925 C5.1365,0 5.349,0 5.56125,0 L15.5,0 Z" id="path-5"></path>
        <circle id="path-7" cx="14.5" cy="14.5" r="14"></circle>
        <filter x="-57.1%" y="-39.3%" width="214.3%" height="221.4%" filterUnits="objectBoundingBox" id="filter-8">
            <feMorphology radius="0.5" operator="dilate" in="SourceAlpha" result="shadowSpreadOuter1"></feMorphology>
            <feOffset dx="0" dy="3" in="shadowSpreadOuter1" result="shadowOffsetOuter1"></feOffset>
            <feGaussianBlur stdDeviation="0.5" in="shadowOffsetOuter1" result="shadowBlurOuter1"></feGaussianBlur>
            <feComposite in="shadowBlurOuter1" in2="SourceAlpha" operator="out" result="shadowBlurOuter1"></feComposite>
            <feColorMatrix values="0 0 0 0 0   0 0 0 0 0   0 0 0 0 0  0 0 0 0.1 0" type="matrix" in="shadowBlurOuter1" result="shadowMatrixOuter1"></feColorMatrix>
            <feMorphology radius="0.5" operator="dilate" in="SourceAlpha" result="shadowSpreadOuter2"></feMorphology>
            <feOffset dx="0" dy="1" in="shadowSpreadOuter2" result="shadowOffsetOuter2"></feOffset>
            <feGaussianBlur stdDeviation="0.5" in="shadowOffsetOuter2" result="shadowBlurOuter2"></feGaussianBlur>
            <feComposite in="shadowBlurOuter2" in2="SourceAlpha" operator="out" result="shadowBlurOuter2"></feComposite>
            <feColorMatrix values="0 0 0 0 0   0 0 0 0 0   0 0 0 0 0  0 0 0 0.16 0" type="matrix" in="shadowBlurOuter2" result="shadowMatrixOuter2"></feColorMatrix>
            <feMorphology radius="0.5" operator="dilate" in="SourceAlpha" result="shadowSpreadOuter3"></feMorphology>
            <feOffset dx="0" dy="3" in="shadowSpreadOuter3" result="shadowOffsetOuter3"></feOffset>
            <feGaussianBlur stdDeviation="4" in="shadowOffsetOuter3" result="shadowBlurOuter3"></feGaussianBlur>
            <feComposite in="shadowBlurOuter3" in2="SourceAlpha" operator="out" result="shadowBlurOuter3"></feComposite>
            <feColorMatrix values="0 0 0 0 0   0 0 0 0 0   0 0 0 0 0  0 0 0 0.15 0" type="matrix" in="shadowBlurOuter3" result="shadowMatrixOuter3"></feColorMatrix>
            <feMerge>
                <feMergeNode in="shadowMatrixOuter1"></feMergeNode>
                <feMergeNode in="shadowMatrixOuter2"></feMergeNode>
                <feMergeNode in="shadowMatrixOuter3"></feMergeNode>
            </feMerge>
        </filter>
    </defs>
    <g id="Page-1" stroke="none" stroke-width="1" fill="none" fill-rule="evenodd">
        <g id="Artboard" transform="translate(-527.000000, -360.000000)">
            <g id="instantsearch-ios-components" transform="translate(527.000000, 350.000000)">
                <rect id="Rectangle-2" fill-opacity="0" fill="#FFFFFF" fill-rule="nonzero" x="0" y="0" width="375" height="258"></rect>
                <g id="Group-6" transform="translate(0.000000, 136.000000)" fill-rule="nonzero">
                    <g id="Group">
                        <rect id="Background" fill="#C7C7CC" x="0" y="0" width="375" height="51"></rect>
                        <rect id="Search-Field" fill="#FFFFFF" x="8" y="8" width="359" height="36" rx="10"></rect>
                        <path d="M194.743095,31.5740557 L190.910095,27.7395557 C191.597165,26.8024594 191.965226,25.6695322 191.960095,24.5075557 C191.946985,21.4744115 189.493717,19.0175744 186.460595,19.0000557 C185.009075,18.9934884 183.615216,19.5677123 182.589531,20.5948065 C181.563845,21.6219006 180.991535,23.0165463 181.000095,24.4680557 C181.013204,27.5014761 183.466697,29.958537 186.500095,29.9760557 C187.666805,29.9811124 188.803871,29.6087552 189.741595,28.9145557 L189.745595,28.9115557 L193.575095,32.7430557 C193.782144,32.9602692 194.09066,33.0481921 194.38111,32.9727584 C194.671559,32.8973248 194.898302,32.6703873 194.973487,32.3798737 C195.048672,32.0893602 194.960485,31.7809186 194.743095,31.5740557 L194.743095,31.5740557 Z M186.496095,28.8780557 C184.069509,28.8640967 182.106747,26.8986584 182.096095,24.4720557 C182.089545,23.3109985 182.547431,22.1955061 183.367825,21.3738915 C184.188219,20.5522768 185.303029,20.0927328 186.464095,20.0975557 C188.890681,20.1115147 190.853442,22.076953 190.864095,24.5035557 C190.870644,25.6646129 190.412758,26.7801053 189.592364,27.60172 C188.771971,28.4233346 187.65716,28.8828786 186.496095,28.8780557 Z" id="Search" fill="#8E8E93"></path>
                    </g>
                </g>
                <g id="Group-4" transform="translate(15.000000, 207.000000)">
                    <rect id="track" fill="#C7C7CC" fill-rule="nonzero" x="0" y="14" width="345" height="2" rx="1"></rect>
                    <rect id="fill" fill="#007AFF" fill-rule="nonzero" x="0" y="14" width="172" height="2" rx="1"></rect>
                    <g id="knob" transform="translate(158.000000, 0.000000)">
                        <g id="path-1-link" transform="translate(1.000000, 1.000000)" fill-rule="nonzero" fill="#000000">
                            <circle id="path-1" cx="14" cy="14" r="14"></circle>
                        </g>
                        <g id="path-1-link" transform="translate(1.000000, 1.000000)">
                            <g id="path-1">
                                <use fill="black" fill-opacity="1" filter="url(#filter-2)" xlink:href="#path-1"></use>
                                <use fill="#FFFFFF" fill-rule="evenodd" xlink:href="#path-1"></use>
                                <circle stroke-opacity="0.04" stroke="#000000" stroke-width="0.5" cx="14" cy="14" r="14.25"></circle>
                            </g>
                        </g>
                        <circle id="Oval" stroke-opacity="0.04" stroke="#000000" stroke-width="0.5" cx="15" cy="15" r="14.25"></circle>
                    </g>
                </g>
                <g id="Group-7" transform="translate(15.000000, 77.000000)">
                    <path d="M342.5,8.00002563 L342.5,19.9999744 L342.49975,22.4386987 C342.499753,22.4843048 342.499753,22.4843048 342.49976,22.5298122 C342.499779,22.6434742 342.499779,22.6434742 342.499719,22.7568086 C342.499501,22.9151824 342.499325,22.9766786 342.498759,23.0728054 C342.497268,23.2862792 342.495004,23.4442443 342.490695,23.5982695 C342.478582,24.0476098 342.451945,24.3794326 342.395887,24.691291 C342.331584,25.0491944 342.22895,25.3640339 342.076492,25.6632636 C341.92259,25.9654395 341.721665,26.2419779 341.481697,26.4819466 C341.241728,26.7219153 340.965189,26.9228403 340.66308,27.0767083 C340.363601,27.2290824 340.049032,27.3316616 339.691777,27.3958897 C339.379219,27.4520367 339.046082,27.4788733 338.598776,27.4909316 C338.436464,27.4952387 338.266351,27.4976774 338.072957,27.4987578 C337.976679,27.4993248 337.915182,27.4995013 337.756809,27.4997189 C337.643474,27.4997793 337.643474,27.4997793 337.529812,27.4997602 C337.484305,27.4997526 337.484305,27.4997526 337.43875,27.49975 L334.999974,27.5 L8.00002563,27.5 L5.56130126,27.49975 C5.5156952,27.4997526 5.5156952,27.4997526 5.47018776,27.4997602 C5.35652583,27.4997793 5.35652583,27.4997793 5.24319144,27.4997189 C5.08481758,27.4995013 5.02332138,27.4993248 4.92719459,27.4987587 C4.73364892,27.4976774 4.5635365,27.4952387 4.40101349,27.490926 C3.95391776,27.4788733 3.62078108,27.4520367 3.30815338,27.3958772 C2.95096844,27.3316616 2.63639922,27.2290824 2.33673736,27.0766154 C2.03481052,26.9228403 1.75827209,26.7219153 1.51830339,26.4819466 C1.27833469,26.2419779 1.07740968,25.9654395 0.923541667,25.6633301 C0.771050146,25.3640339 0.668416421,25.0491944 0.604120164,24.691332 C0.548055196,24.3794326 0.521417917,24.0476098 0.50931842,23.5987761 C0.504996111,23.4442443 0.502732367,23.2862792 0.501237809,23.0722585 C0.500675212,22.9766786 0.500498732,22.9151824 0.500281055,22.7568086 C0.500220694,22.6434742 0.500220694,22.6434742 0.500239789,22.5298122 C0.500247445,22.4843048 0.500247445,22.4843048 0.50025,22.43875 L0.5,19.9999744 L0.5,8.00002563 L0.500249997,5.56105125 L0.50025,5.561 C0.500247445,5.51544775 0.500247445,5.51544775 0.500239789,5.46995085 C0.500194038,5.19804779 0.500356407,5.07738132 0.50124135,4.92694113 C0.502734706,4.71343532 0.504998842,4.55544275 0.509303958,4.40175011 C0.521417917,3.95239022 0.548055196,3.62056735 0.604112806,3.30870895 C0.668383439,2.95076046 0.770966032,2.63613117 0.923507785,2.33673637 C1.07755898,2.03426737 1.27853129,1.75760916 1.51814374,1.51821297 C1.75859585,1.27776093 2.03514596,1.07677275 2.33666633,0.923420702 C2.63639922,0.770917627 2.95096844,0.668338388 3.30822281,0.604110315 C3.62078108,0.547963341 3.95391776,0.521126738 4.40122392,0.50906842 C4.55863608,0.50467167 4.72190113,0.502388243 4.92704325,0.501242198 C5.08506286,0.500466631 5.08506286,0.500466631 5.24348573,0.500155709 C5.40215391,0.500000045 5.40215391,0.500000045 5.56125,0.5 L337.43875,0.5 C337.597846,0.500000045 337.597846,0.500000045 337.756514,0.500155709 C337.914937,0.500466631 337.914937,0.500466631 338.072805,0.501241329 C338.278099,0.502388243 338.441364,0.50467167 338.598289,0.509055051 C339.046082,0.521126738 339.379219,0.547963341 339.691847,0.604122792 C340.049032,0.668338388 340.363601,0.770917627 340.663263,0.923384568 C340.964854,1.07677275 341.241404,1.27776093 341.481697,1.51805339 C341.721469,1.75760916 341.922441,2.03426737 342.076458,2.33666986 C342.229034,2.63613117 342.331617,2.95076046 342.39587,3.30861328 C342.451945,3.62056735 342.478582,3.95239022 342.490682,4.40122392 C342.495001,4.55544275 342.497265,4.71343532 342.498762,4.92749642 C342.499644,5.07738132 342.499806,5.19804779 342.49976,5.46995085 C342.499753,5.51544775 342.499753,5.51544775 342.49975,5.561 L342.5,8.00002563 Z" id="Shape" stroke="#007AFF"></path>
                    <g id="Controls-/-Segmented-Control-/-_Resources-/-Button-on-Light-Clipped">
                        <mask id="mask-4" fill="white">
                            <use xlink:href="#path-3"></use>
                        </mask>
                        <g id="path-3"></g>
                        <g id="Controls-/-Segmented-Control-/-_Resources-/-Button-on-Light" mask="url(#mask-4)">
                            <g transform="translate(172.000000, 0.000000)" id="Group">
                                <g>
                                    <rect id="Background" x="0" y="0" width="171" height="28"></rect>
                                    <g id="Tab-Label" transform="translate(70.000000, 8.000000)" fill="#007AFF">
                                        <path d="M6.48625977,8.97167969 L2.06829102,8.97167969 L2.06829102,0.840332031 L0.925712894,0.840332031 L0.925712894,10 L6.48625977,10 L6.48625977,8.97167969 Z M10.1996387,9.16210938 C10.762467,9.16210938 11.2290151,8.9981299 11.5992969,8.67016602 C11.9695787,8.34220214 12.1547168,7.93489827 12.1547168,7.44824219 L12.1547168,6.81982422 L10.3138965,6.94042969 C9.31519358,7.00813836 8.81584961,7.38053047 8.81584961,8.05761719 C8.81584961,8.40462413 8.9470332,8.67545476 9.2094043,8.87011719 C9.4717754,9.06477962 9.80185023,9.16210938 10.1996387,9.16210938 Z M9.99651367,10.1206055 C9.33212233,10.1206055 8.78093969,9.93758321 8.34294922,9.5715332 C7.90495875,9.2054832 7.6859668,8.70931303 7.6859668,8.08300781 C7.6859668,6.83039738 8.51750145,6.15543668 10.1805957,6.05810547 L12.1547168,5.9375 L12.1547168,5.31542969 C12.1547168,4.44368054 11.6384459,4.0078125 10.6058887,4.0078125 C10.1954049,4.0078125 9.85475071,4.08186775 9.58391602,4.22998047 C9.31308133,4.37809319 9.13958046,4.58756375 9.06340821,4.85839844 L7.95891602,4.85839844 C8.03085648,4.30826548 8.31438229,3.86710778 8.80950196,3.53491211 C9.30462162,3.20271644 9.91610639,3.03662109 10.6439746,3.03662109 C11.4776376,3.03662109 12.1198024,3.23868613 12.5704883,3.64282227 C13.0211741,4.0469584 13.2465137,4.60448863 13.2465137,5.31542969 L13.2465137,10 L12.205498,10 L12.205498,8.99072266 L12.1039355,8.99072266 C11.8838824,9.35465677 11.5918931,9.63395085 11.227959,9.82861328 C10.8640249,10.0232757 10.4535472,10.1206055 9.99651367,10.1206055 Z M18.5912402,10.1206055 C18.1172795,10.1206055 17.6867012,10.0137543 17.2994922,9.80004883 C16.9122832,9.58634333 16.6107726,9.2890644 16.3949512,8.90820313 L16.2933887,8.90820313 L16.2933887,10 L15.252373,10 L15.252373,0.440429688 L16.3441699,0.440429688 L16.3441699,4.23632813 L16.4457324,4.23632813 C16.6319313,3.86816222 16.9186309,3.57617295 17.3058398,3.36035156 C17.6930488,3.14453017 18.1215113,3.03662109 18.5912402,3.03662109 C19.4629894,3.03662109 20.1591087,3.35823246 20.6796191,4.00146484 C21.2001296,4.64469723 21.4603809,5.50373812 21.4603809,6.57861328 C21.4603809,7.64925666 21.1990716,8.50723961 20.6764453,9.15258789 C20.153819,9.79793617 19.4587576,10.1206055 18.5912402,10.1206055 Z M18.337334,4.02050781 C17.7152606,4.02050781 17.2233221,4.24902115 16.8615039,4.70605469 C16.4996857,5.16308822 16.3187793,5.78726818 16.3187793,6.57861328 C16.3187793,7.36995838 16.4996857,7.99413834 16.8615039,8.45117188 C17.2233221,8.90820541 17.7152606,9.13671875 18.337334,9.13671875 C18.9636392,9.13671875 19.4524038,8.91032127 19.8036426,8.45751953 C20.1548813,8.00471779 20.330498,7.37842197 20.330498,6.57861328 C20.330498,5.77880459 20.1548813,5.15250877 19.8036426,4.69970703 C19.4524038,4.24690529 18.9636392,4.02050781 18.337334,4.02050781 Z M25.8275684,4.00146484 C25.2816672,4.00146484 24.833104,4.18554503 24.4818652,4.55371094 C24.1306265,4.92187684 23.9338511,5.40852562 23.8915332,6.01367188 L27.662041,6.01367188 C27.6493456,5.40852562 27.4758448,4.92187684 27.1415332,4.55371094 C26.8072216,4.18554503 26.3692377,4.00146484 25.8275684,4.00146484 Z M27.6303027,8.22900391 L28.7220996,8.22900391 C28.5570597,8.81722299 28.2227532,9.27953933 27.7191699,9.6159668 C27.2155867,9.95239426 26.5892909,10.1206055 25.8402637,10.1206055 C24.8923423,10.1206055 24.1412105,9.8021679 23.5868457,9.1652832 C23.032481,8.52839851 22.7553027,7.66829969 22.7553027,6.58496094 C22.7553027,5.51008577 23.0345968,4.64998695 23.5931934,4.00463867 C24.1517899,3.35929039 24.9008059,3.03662109 25.8402637,3.03662109 C26.7627943,3.03662109 27.4885358,3.34447934 28.0175098,3.96020508 C28.5464838,4.57593081 28.8109668,5.41487099 28.8109668,6.47705078 L28.8109668,6.89599609 L23.8915332,6.89599609 L23.8915332,6.94677734 C23.9211558,7.62386406 24.1126415,8.16129358 24.4659961,8.55908203 C24.8193507,8.95687048 25.2858988,9.15576172 25.8656543,9.15576172 C26.3057607,9.15576172 26.673921,9.07641681 26.9701465,8.91772461 C27.2663719,8.75903241 27.4864218,8.52946114 27.6303027,8.22900391 Z M30.5121387,10 L31.6039355,10 L31.6039355,0.440429688 L30.5121387,0.440429688 L30.5121387,10 Z" id="Label"></path>
                                    </g>
                                </g>
                            </g>
                        </g>
                    </g>
                    <g id="Controls-/-Segmented-Control-/-_Resources-/-Button-Active-on-Light-Clipped">
                        <mask id="mask-6" fill="white">
                            <use xlink:href="#path-5"></use>
                        </mask>
                        <g id="path-3"></g>
                        <g id="Controls-/-Segmented-Control-/-_Resources-/-Button-Active-on-Light" mask="url(#mask-6)">
                            <rect id="Background" fill="#007AFF" x="0" y="0" width="173" height="28"></rect>
                            <path d="M77.4862598,16.9716797 L73.068291,16.9716797 L73.068291,8.84033203 L71.9257129,8.84033203 L71.9257129,18 L77.4862598,18 L77.4862598,16.9716797 Z M81.1996387,17.1621094 C81.762467,17.1621094 82.2290151,16.9981299 82.5992969,16.670166 C82.9695787,16.3422021 83.1547168,15.9348983 83.1547168,15.4482422 L83.1547168,14.8198242 L81.3138965,14.9404297 C80.3151936,15.0081384 79.8158496,15.3805305 79.8158496,16.0576172 C79.8158496,16.4046241 79.9470332,16.6754548 80.2094043,16.8701172 C80.4717754,17.0647796 80.8018502,17.1621094 81.1996387,17.1621094 Z M80.9965137,18.1206055 C80.3321223,18.1206055 79.7809397,17.9375832 79.3429492,17.5715332 C78.9049588,17.2054832 78.6859668,16.709313 78.6859668,16.0830078 C78.6859668,14.8303974 79.5175015,14.1554367 81.1805957,14.0581055 L83.1547168,13.9375 L83.1547168,13.3154297 C83.1547168,12.4436805 82.6384459,12.0078125 81.6058887,12.0078125 C81.1954049,12.0078125 80.8547507,12.0818677 80.583916,12.2299805 C80.3130813,12.3780932 80.1395805,12.5875638 80.0634082,12.8583984 L78.958916,12.8583984 C79.0308565,12.3082655 79.3143823,11.8671078 79.809502,11.5349121 C80.3046216,11.2027164 80.9161064,11.0366211 81.6439746,11.0366211 C82.4776376,11.0366211 83.1198024,11.2386861 83.5704883,11.6428223 C84.0211741,12.0469584 84.2465137,12.6044886 84.2465137,13.3154297 L84.2465137,18 L83.2054981,18 L83.2054981,16.9907227 L83.1039356,16.9907227 C82.8838824,17.3546568 82.5918931,17.6339508 82.227959,17.8286133 C81.8640249,18.0232757 81.4535472,18.1206055 80.9965137,18.1206055 Z M89.5912402,18.1206055 C89.1172795,18.1206055 88.6867012,18.0137543 88.2994922,17.8000488 C87.9122832,17.5863433 87.6107726,17.2890644 87.3949512,16.9082031 L87.2933887,16.9082031 L87.2933887,18 L86.2523731,18 L86.2523731,8.44042969 L87.3441699,8.44042969 L87.3441699,12.2363281 L87.4457324,12.2363281 C87.6319313,11.8681622 87.9186309,11.576173 88.3058398,11.3603516 C88.6930488,11.1445302 89.1215113,11.0366211 89.5912402,11.0366211 C90.4629894,11.0366211 91.1591087,11.3582325 91.6796191,12.0014648 C92.2001296,12.6446972 92.4603809,13.5037381 92.4603809,14.5786133 C92.4603809,15.6492567 92.1990716,16.5072396 91.6764453,17.1525879 C91.153819,17.7979362 90.4587576,18.1206055 89.5912402,18.1206055 Z M89.337334,12.0205078 C88.7152606,12.0205078 88.2233221,12.2490212 87.8615039,12.7060547 C87.4996857,13.1630882 87.3187793,13.7872682 87.3187793,14.5786133 C87.3187793,15.3699584 87.4996857,15.9941383 87.8615039,16.4511719 C88.2233221,16.9082054 88.7152606,17.1367188 89.337334,17.1367188 C89.9636392,17.1367188 90.4524038,16.9103213 90.8036426,16.4575195 C91.1548813,16.0047178 91.3304981,15.378422 91.3304981,14.5786133 C91.3304981,13.7788046 91.1548813,13.1525088 90.8036426,12.699707 C90.4524038,12.2469053 89.9636392,12.0205078 89.337334,12.0205078 Z M96.8275684,12.0014648 C96.2816672,12.0014648 95.833104,12.185545 95.4818652,12.5537109 C95.1306265,12.9218768 94.9338511,13.4085256 94.8915332,14.0136719 L98.662041,14.0136719 C98.6493456,13.4085256 98.4758448,12.9218768 98.1415332,12.5537109 C97.8072216,12.185545 97.3692377,12.0014648 96.8275684,12.0014648 Z M98.6303027,16.2290039 L99.7220996,16.2290039 C99.5570597,16.817223 99.2227532,17.2795393 98.7191699,17.6159668 C98.2155867,17.9523943 97.5892909,18.1206055 96.8402637,18.1206055 C95.8923423,18.1206055 95.1412105,17.8021679 94.5868457,17.1652832 C94.032481,16.5283985 93.7553027,15.6682997 93.7553027,14.5849609 C93.7553027,13.5100858 94.0345968,12.649987 94.5931934,12.0046387 C95.1517899,11.3592904 95.9008059,11.0366211 96.8402637,11.0366211 C97.7627943,11.0366211 98.4885358,11.3444793 99.0175098,11.9602051 C99.5464838,12.5759308 99.8109668,13.414871 99.8109668,14.4770508 L99.8109668,14.8959961 L94.8915332,14.8959961 L94.8915332,14.9467773 C94.9211558,15.6238641 95.1126415,16.1612936 95.4659961,16.559082 C95.8193507,16.9568705 96.2858988,17.1557617 96.8656543,17.1557617 C97.3057607,17.1557617 97.673921,17.0764168 97.9701465,16.9177246 C98.2663719,16.7590324 98.4864218,16.5294611 98.6303027,16.2290039 Z M101.512139,18 L102.603936,18 L102.603936,8.44042969 L101.512139,8.44042969 L101.512139,18 Z" id="Label" fill="#FFFFFF"></path>
                        </g>
                    </g>
                </g>
                <g id="Group-11" transform="translate(7.000000, 12.000000)">
                    <g id="Group-9">
                        <path d="M4.1155,8.2755 L10.29,11.8405 C10.7011194,12.0670378 10.9576815,12.4981005 10.9607693,12.9674926 C10.9638571,13.4368848 10.7129883,13.8712855 10.3048848,14.1032124 C9.89678136,14.3351393 9.39519063,14.3283645 8.9935,14.0855 L2.819,10.521 C2.2055361,10.1599535 1.99788938,9.37182734 2.35381341,8.75537735 C2.70973744,8.13892736 3.4961067,7.92472309 4.1155,8.2755 Z" id="Indeterminate_Spinner_-path" fill="#E0E1E3"></path>
                        <path d="M26.25,2.3445 C26.8700564,2.70253496 27.0824919,3.49541879 26.7245,4.1155 L23.1595,10.29 C22.9329622,10.7011194 22.5018995,10.9576815 22.0325074,10.9607693 C21.5631152,10.9638571 21.1287145,10.7129883 20.8967876,10.3048848 C20.6648607,9.89678136 20.6716355,9.39519063 20.9145,8.9935 L24.4795,2.819 C24.8375211,2.19924357 25.6300303,1.98684842 26.25,2.3445 L26.25,2.3445 Z" id="Indeterminate_Spinner_-path" fill="#BBBFC4"></path>
                        <path d="M26.0065,20.9145 L32.181,24.4795 C32.5921194,24.7060378 32.8486815,25.1371005 32.8517693,25.6064926 C32.8548571,26.0758848 32.6039883,26.5102855 32.1958848,26.7422124 C31.7877814,26.9741393 31.2861906,26.9673645 30.8845,26.7245 L24.71,23.1595 C24.2988806,22.9329622 24.0423185,22.5018995 24.0392307,22.0325074 C24.0361429,21.5631152 24.2870117,21.1287145 24.6951152,20.8967876 C25.1032186,20.6648607 25.6048094,20.6716355 26.0065,20.9145 L26.0065,20.9145 Z" id="Indeterminate_Spinner_-path" fill="#959AA2"></path>
                        <path d="M13.611,24.236 C14.2310564,24.594035 14.4434919,25.3869188 14.0855,26.007 L10.5205,32.1815 C10.2909759,32.5867881 9.8616902,32.8378135 9.395924,32.8390974 C8.93015779,32.8403813 8.49949475,32.5917264 8.26773973,32.1877098 C8.0359847,31.7836932 8.03875617,31.2864083 8.275,30.885 L11.84,24.7105 C12.0118405,24.4126358 12.2950163,24.1952773 12.627179,24.1062817 C12.9593417,24.0172861 13.3132565,24.0639503 13.611,24.236 Z" id="Indeterminate_Spinner_-path" fill="#6D747E"></path>
                        <path d="M10.521,2.819 L14.086,8.9935 C14.3288645,9.39519063 14.3356393,9.89678136 14.1037124,10.3048848 C13.8717855,10.7129883 13.4373848,10.9638571 12.9679926,10.9607693 C12.4986005,10.9576815 12.0675378,10.7011194 11.841,10.29 L8.2755,4.1155 C7.92472309,3.4961067 8.13892736,2.70973744 8.75537735,2.35381341 C9.37182734,1.99788938 10.1599535,2.2055361 10.521,2.819 Z" id="Indeterminate_Spinner_-path" fill="#D3D6D9"></path>
                        <path d="M32.6555,8.75 C32.827391,9.04769845 32.8739664,9.40149227 32.784978,9.73353434 C32.6959896,10.0655764 32.4787286,10.3486612 32.181,10.5205 L26.0065,14.0855 C25.6048094,14.3283645 25.1032186,14.3351393 24.6951152,14.1032124 C24.2870117,13.8712855 24.0361429,13.4368848 24.0392307,12.9674926 C24.0423185,12.4981005 24.2988806,12.0670378 24.71,11.8405 L30.8845,8.2755 C31.5045812,7.91750807 32.297465,8.12994363 32.6555,8.75 L32.6555,8.75 Z" id="Indeterminate_Spinner_-path" fill="#ADB2B8"></path>
                        <path d="M23.1595,24.7105 L26.7245,30.885 C26.9673645,31.2866906 26.9741393,31.7882814 26.7422124,32.1963848 C26.5102855,32.6044883 26.0758848,32.8553571 25.6064926,32.8522693 C25.1371005,32.8491815 24.7060378,32.5926194 24.4795,32.1815 L20.9145,26.007 C20.6716355,25.6053094 20.6648607,25.1037186 20.8967876,24.6956152 C21.1287145,24.2875117 21.5631152,24.0366429 22.0325074,24.0397307 C22.5018995,24.0428185 22.9329622,24.2993806 23.1595,24.7105 L23.1595,24.7105 Z" id="Indeterminate_Spinner_-path" fill="#858B95"></path>
                        <path d="M10.7645,21.389 C10.936391,21.6866984 10.9829664,22.0404923 10.893978,22.3725343 C10.8049896,22.7045764 10.5877286,22.9876612 10.29,23.1595 L4.1155,26.7245 C3.49725677,27.0651686 2.72008683,26.8486365 2.36707096,26.2373595 C2.01405509,25.6260825 2.2149358,24.8447208 2.819,24.4795 L8.9935,20.9145 C9.61358121,20.5565081 10.406465,20.7689436 10.7645,21.389 Z" id="Indeterminate_Spinner_-path" fill="#F8F8F8"></path>
                        <path d="M1,16.203 L8.719,16.203 C9.27128475,16.203 9.719,16.6507153 9.719,17.203 L9.719,17.797 C9.719,18.3492847 9.27128475,18.797 8.719,18.797 L1,18.797 C0.44771525,18.797 6.76353751e-17,18.3492847 0,17.797 L0,17.203 C-6.76353751e-17,16.6507153 0.44771525,16.203 1,16.203 L1,16.203 Z" id="Indeterminate_Spinner_-path" fill="#ECEEEF"></path>
                        <path d="M17.203,0 L17.797,0 C18.3492847,3.38176876e-17 18.797,0.44771525 18.797,1 L18.797,8.719 C18.797,9.27128475 18.3492847,9.719 17.797,9.719 L17.203,9.719 C16.6507153,9.719 16.203,9.27128475 16.203,8.719 L16.203,1 C16.203,0.44771525 16.6507153,1.01453063e-16 17.203,0 Z" id="Indeterminate_Spinner_-path" fill="#C8CACE"></path>
                        <path d="M26.2815,16.203 L34,16.203 C34.5522847,16.203 35,16.6507153 35,17.203 L35,17.797 C35,18.3492847 34.5522847,18.797 34,18.797 L26.2815,18.797 C25.7292153,18.797 25.2815,18.3492847 25.2815,17.797 L25.2815,17.203 C25.2815,16.6507153 25.7292153,16.203 26.2815,16.203 Z" id="Indeterminate_Spinner_-path" fill="#A2A6AE"></path>
                        <path d="M17.203,25.2815 L17.797,25.2815 C18.3492847,25.2815 18.797,25.7292153 18.797,26.2815 L18.797,34 C18.797,34.5522847 18.3492847,35 17.797,35 L17.203,35 C16.6507153,35 16.203,34.5522847 16.203,34 L16.203,26.2815 C16.203,25.7292153 16.6507153,25.2815 17.203,25.2815 Z" id="Indeterminate_Spinner_-path" fill="#797F89"></path>
                    </g>
                    <g id="Group-8" transform="translate(70.000000, 4.000000)">
                        <g id="Group-2">
                            <g id="Rectangle">
                                <g id="path-5-link" fill="#007AFF" fill-opacity="0">
                                    <rect id="path-5" x="0" y="0" width="101" height="28" rx="4"></rect>
                                </g>
                                <rect id="Rectangle-path" stroke="#007AFF" x="0.5" y="0.5" width="100" height="27" rx="4"></rect>
                            </g>
                            <rect id="separator" fill="#007AFF" fill-rule="nonzero" x="50" y="0" width="1" height="28"></rect>
                            <polygon id="+" fill="#007AFF" fill-rule="nonzero" points="75 6 75 13 68 13 68 15 75 15 75 22 77 22 77 15 84 15 84 13 77 13 77 6"></polygon>
                            <polygon id="-" fill="#007AFF" fill-rule="nonzero" points="17 15 33 15 33 13 17 13"></polygon>
                        </g>
                    </g>
                    <g id="Group-10" transform="translate(310.000000, 11.000000)" fill-rule="nonzero" fill="#007AFF">
                        <path d="M4.67333984,11.9780273 L0,11.9780273 L0,0 L4.58203125,0 C5.68327374,0 6.54931325,0.268389243 7.18017578,0.805175781 C7.81103831,1.34196232 8.12646484,2.06965687 8.12646484,2.98828125 C8.12646484,3.60807602 7.92586464,4.1669897 7.5246582,4.66503906 C7.12345177,5.16308843 6.63509402,5.46468046 6.05957031,5.56982422 L6.05957031,5.70263672 C6.87858482,5.80778047 7.52880619,6.12182356 8.01025391,6.64477539 C8.49170163,7.16772722 8.73242188,7.82486583 8.73242188,8.61621094 C8.73242188,9.66764849 8.3741084,10.4908011 7.6574707,11.0856934 C6.94083301,11.6805857 5.94613267,11.9780273 4.67333984,11.9780273 Z M1.49414062,1.31982422 L1.49414062,5.16308594 L3.88476562,5.16308594 C4.79232225,5.16308594 5.47436295,5.00260577 5.9309082,4.68164062 C6.38745345,4.36067548 6.61572266,3.88200188 6.61572266,3.24560547 C6.61572266,2.63687847 6.40958865,2.16373867 5.99731445,1.82617188 C5.58504026,1.48860508 5.00814173,1.31982422 4.26660156,1.31982422 L1.49414062,1.31982422 Z M1.49414062,10.6582031 L4.44921875,10.6582031 C5.35124149,10.6582031 6.03466564,10.4783547 6.49951172,10.1186523 C6.96435779,9.75895002 7.19677734,9.23323914 7.19677734,8.54150391 C7.19677734,7.84976868 6.95467365,7.32820814 6.47045898,6.97680664 C5.98624432,6.62540514 5.26546703,6.44970703 4.30810547,6.44970703 L1.49414062,6.44970703 L1.49414062,10.6582031 Z M17.5663789,3.02978516 L16.1386445,3.02978516 L16.1386445,8.32568359 C16.1386445,9.11149481 15.9297436,9.72574648 15.5119356,10.168457 C15.0941275,10.6111676 14.48956,10.8325195 13.6982149,10.8325195 C12.9843441,10.8325195 12.4683174,10.64022 12.1501192,10.2556152 C11.831921,9.87101045 11.6728242,9.27751052 11.6728242,8.47509766 L11.6728242,3.02978516 L10.2450899,3.02978516 L10.2450899,8.82373047 C10.2450899,9.8807019 10.503795,10.6969372 11.0212129,11.2724609 C11.5386309,11.8479846 12.2981447,12.1357422 13.2997774,12.1357422 C13.9859787,12.1357422 14.5642607,12.0001641 15.0346406,11.7290039 C15.5050206,11.4578437 15.850883,11.0732447 16.0722383,10.5751953 L16.2050508,10.5751953 L16.2050508,11.9780273 L17.5663789,11.9780273 L17.5663789,3.02978516 Z M20.1913516,0.713867188 L20.1913516,3.02978516 L18.7470157,3.02978516 L18.7470157,4.22509766 L20.1913516,4.22509766 L20.1913516,9.65380859 C20.1913516,10.5060264 20.3919518,11.1175112 20.7931582,11.4882812 C21.1943647,11.8590513 21.8542702,12.0444336 22.7728946,12.0444336 C22.9167755,12.0444336 23.0578874,12.0375163 23.1962344,12.0236816 C23.3345815,12.0098469 23.4729264,11.9890952 23.6112735,11.9614258 L23.6112735,10.7578125 C23.4784603,10.7688803 23.3664009,10.777181 23.2750918,10.7827148 C23.1837828,10.7882487 23.0744902,10.7910156 22.947211,10.7910156 C22.4823649,10.7910156 22.1448032,10.672039 21.9345157,10.434082 C21.7242281,10.1961251 21.619086,9.81429299 21.619086,9.28857422 L21.619086,4.22509766 L23.6112735,4.22509766 L23.6112735,3.02978516 L21.619086,3.02978516 L21.619086,0.713867188 L20.1913516,0.713867188 Z M25.7049961,0.713867188 L25.7049961,3.02978516 L24.2606602,3.02978516 L24.2606602,4.22509766 L25.7049961,4.22509766 L25.7049961,9.65380859 C25.7049961,10.5060264 25.9055963,11.1175112 26.3068028,11.4882812 C26.7080092,11.8590513 27.3679147,12.0444336 28.2865391,12.0444336 C28.43042,12.0444336 28.5715319,12.0375163 28.709879,12.0236816 C28.848226,12.0098469 28.986571,11.9890952 29.124918,11.9614258 L29.124918,10.7578125 C28.9921048,10.7688803 28.8800454,10.777181 28.7887364,10.7827148 C28.6974273,10.7882487 28.5881348,10.7910156 28.4608555,10.7910156 C27.9960094,10.7910156 27.6584477,10.672039 27.4481602,10.434082 C27.2378727,10.1961251 27.1327305,9.81429299 27.1327305,9.28857422 L27.1327305,4.22509766 L29.124918,4.22509766 L29.124918,3.02978516 L27.1327305,3.02978516 L27.1327305,0.713867188 L25.7049961,0.713867188 Z M34.1737188,12.1357422 C32.900926,12.1357422 31.8951581,11.7220907 31.1563848,10.8947754 C30.4176116,10.0674601 30.0482305,8.93718165 30.0482305,7.50390625 C30.0482305,6.06509697 30.4176116,4.93343511 31.1563848,4.10888672 C31.8951581,3.28433833 32.900926,2.87207031 34.1737188,2.87207031 C35.4465116,2.87207031 36.4522796,3.28433833 37.1910528,4.10888672 C37.929826,4.93343511 38.2992071,6.06509697 38.2992071,7.50390625 C38.2992071,8.93718165 37.929826,10.0674601 37.1910528,10.8947754 C36.4522796,11.7220907 35.4465116,12.1357422 34.1737188,12.1357422 Z M34.1737188,10.8491211 C35.0204027,10.8491211 35.673391,10.5558298 36.1327032,9.96923828 C36.5920154,9.38264681 36.821668,8.56087768 36.821668,7.50390625 C36.821668,6.44140094 36.5920154,5.61824836 36.1327032,5.03442383 C35.673391,4.45059929 35.0204027,4.15869141 34.1737188,4.15869141 C33.3270349,4.15869141 32.6740466,4.45059929 32.2147344,5.03442383 C31.7554222,5.61824836 31.5257696,6.44140094 31.5257696,7.50390625 C31.5257696,8.56087768 31.7554222,9.38264681 32.2147344,9.96923828 C32.6740466,10.5558298 33.3270349,10.8491211 34.1737188,10.8491211 Z M39.8782813,11.9780273 L41.3060157,11.9780273 L41.3060157,6.68212891 C41.3060157,5.89631769 41.519067,5.27929912 41.9451759,4.83105469 C42.3712848,4.38281026 42.941266,4.15869141 43.6551368,4.15869141 C44.3690076,4.15869141 44.8988688,4.35237437 45.2447364,4.73974609 C45.590604,5.12711782 45.7635352,5.7247681 45.7635352,6.53271484 L45.7635352,11.9780273 L47.1912696,11.9780273 L47.1912696,6.18408203 C47.1912696,5.12157672 46.9214969,4.30395794 46.3819434,3.73120117 C45.84239,3.1584444 45.0690416,2.87207031 44.0618751,2.87207031 C43.3756737,2.87207031 42.8126097,3.01041528 42.3726661,3.28710938 C41.9327225,3.56380347 41.5993111,3.94840249 41.372422,4.44091797 L41.2396095,4.44091797 L41.2396095,3.02978516 L39.8782813,3.02978516 L39.8782813,11.9780273 Z" id="Label"></path>
                    </g>
                    <g id="Group-5" transform="translate(204.000000, 2.000000)">
                        <g id="Group-3">
                            <path d="M15.857,0.0921521998 C17.597,-0.00784780024 19.335,0.000152199762 21.075,0.000152199762 L29.892,0.000152199762 C31.666,0.000152199762 33.404,-0.00784780024 35.143,0.0921521998 C36.724,0.1821522 38.264,0.3741522 39.797,0.8031522 C43.024,1.7051522 45.842,3.5891522 47.879,6.2601522 C49.904,8.9141522 51,12.1631522 51,15.4991522 C51,18.8391522 49.904,22.0861522 47.879,24.7401522 C45.842,27.4101522 43.024,29.2951522 39.797,30.1971522 C38.264,30.6261522 36.724,30.8171522 35.143,30.9081522 C33.404,31.0081522 31.666,30.9991522 29.926,30.9991522 C29.914,30.9991522 21.107,31.0001522 21.107,31.0001522 C19.335,30.9991522 17.597,31.0081522 15.857,30.9081522 C14.277,30.8171522 12.737,30.6261522 11.204,30.1971522 C7.977,29.2951522 5.159,27.4101522 3.122,24.7401522 C1.097,22.0861522 0,18.8391522 0,15.5001522 C0,12.1631522 1.097,8.9141522 3.122,6.2601522 C5.159,3.5891522 7.977,1.7051522 11.204,0.8031522 C12.737,0.3741522 14.277,0.1821522 15.857,0.0921521998 Z" id="base" fill="#4CD964" fill-rule="nonzero"></path>
                            <g id="knob" transform="translate(21.000000, 1.000000)">
                                <g id="path-6-link" fill-rule="nonzero" fill="#000000">
                                    <circle id="path-6" cx="14.5" cy="14.5" r="14"></circle>
                                </g>
                                <g id="path-6-link">
                                    <g id="path-6">
                                        <use fill="black" fill-opacity="1" filter="url(#filter-8)" xlink:href="#path-7"></use>
                                        <use fill="#FFFFFF" fill-rule="evenodd" xlink:href="#path-7"></use>
                                        <circle stroke-opacity="0.04" stroke="#000000" stroke-width="0.5" cx="14.5" cy="14.5" r="14.25"></circle>
                                    </g>
                                </g>
                                <circle id="Oval" stroke-opacity="0.04" stroke="#000000" stroke-width="0.5" cx="14.5" cy="14.5" r="14.25"></circle>
                            </g>
                        </g>
                    </g>
                </g>
            </g>
        </g>
    </g>
</svg>