<svg xmlns="http://www.w3.org/2000/svg" xmlns:xlink="http://www.w3.org/1999/xlink" width="431" height="278" viewBox="0 0 431 278">
    <defs>
        <circle id="a" cx="8" cy="9" r="8"/>
        <circle id="b" cx="8" cy="9" r="8"/>
        <circle id="c" cx="8" cy="9" r="8"/>
        <linearGradient id="d" x1="100%" x2="0%" y1="0%" y2="100%">
            <stop offset="0%" stop-color="#00AEFF"/>
            <stop offset="100%" stop-color="#3369E6"/>
        </linearGradient>
        <rect id="f" width="81" height="27" rx="4"/>
        <filter id="e" width="104.9%" height="114.8%" x="-2.5%" y="-3.7%" filterUnits="objectBoundingBox">
            <feOffset dy="1" in="SourceAlpha" result="shadowOffsetOuter1"/>
            <feGaussianBlur in="shadowOffsetOuter1" result="shadowBlurOuter1" stdDeviation=".5"/>
            <feComposite in="shadowBlurOuter1" in2="SourceAlpha" operator="out" result="shadowBlurOuter1"/>
            <feColorMatrix in="shadowBlurOuter1" values="0 0 0 0 0.333333333 0 0 0 0 0.376470588 0 0 0 0 0.431372549 0 0 0 0.2 0"/>
        </filter>
        <rect id="g" width="16" height="16" y="1" rx="3.2"/>
        <rect id="h" width="16" height="16" y="1" rx="3.2"/>
        <rect id="i" width="16" height="16" y="1" rx="3.2"/>
        <linearGradient id="j" x1="0%" y1="8.499%" y2="8.499%">
            <stop offset="0%" stop-color="#201C38"/>
            <stop offset="100%" stop-color="#3E396B"/>
        </linearGradient>
        <circle id="l" cx="51" cy="12" r="9"/>
        <filter id="k" width="122.2%" height="122.2%" x="-11.1%" y="-5.6%" filterUnits="objectBoundingBox">
            <feOffset dy="1" in="SourceAlpha" result="shadowOffsetOuter1"/>
            <feGaussianBlur in="shadowOffsetOuter1" result="shadowBlurOuter1" stdDeviation=".5"/>
            <feComposite in="shadowBlurOuter1" in2="SourceAlpha" operator="out" result="shadowBlurOuter1"/>
            <feColorMatrix in="shadowBlurOuter1" values="0 0 0 0 0.333333333 0 0 0 0 0.376470588 0 0 0 0 0.431372549 0 0 0 0.2 0"/>
        </filter>
        <circle id="n" cx="251" cy="12" r="12"/>
        <filter id="m" width="116.7%" height="116.7%" x="-8.3%" y="-4.2%" filterUnits="objectBoundingBox">
            <feOffset dy="1" in="SourceAlpha" result="shadowOffsetOuter1"/>
            <feGaussianBlur in="shadowOffsetOuter1" result="shadowBlurOuter1" stdDeviation=".5"/>
            <feComposite in="shadowBlurOuter1" in2="SourceAlpha" operator="out" result="shadowBlurOuter1"/>
            <feColorMatrix in="shadowBlurOuter1" values="0 0 0 0 0.333333333 0 0 0 0 0.376470588 0 0 0 0 0.431372549 0 0 0 0.2 0"/>
        </filter>
    </defs>
    <g fill="none" fill-rule="evenodd">
        <g transform="translate(97)">
            <rect width="100" height="22" fill="#3E396B" rx="4"/>
            <text fill="#FFF" font-family="OpenSans-Semibold, Open Sans" font-size="12" font-weight="500">
                <tspan x="8" y="15">Color: Black</tspan>
            </text>
            <path fill="#FFF" d="M88.471 10.646l2.474-2.473a.583.583 0 1 1 .826.824l-2.476 2.474 2.474 2.474a.583.583 0 1 1-.824.826l-2.474-2.476-2.473 2.474a.583.583 0 1 1-.826-.824l2.475-2.474-2.473-2.473a.582.582 0 1 1 .822-.827l2.475 2.476z"/>
        </g>
        <g transform="translate(1)">
            <rect width="64" height="22" fill="#3E396B" rx="4"/>
            <text fill="#FFF" font-family="OpenSans-Semibold, Open Sans" font-size="12" font-weight="500">
                <tspan x="8" y="15">Clear All</tspan>
            </text>
        </g>
        <text fill="#697782" font-family="OpenSans, Open Sans" font-size="14" opacity=".6" transform="translate(245)">
            <tspan x=".336" y="15">Matching 10,000 hits in 1 ms</tspan>
        </text>
        <g transform="translate(1 54)">
            <use fill="#FFF" xlink:href="#a"/>
            <circle cx="8" cy="9" r="7.5" stroke="#D4D8E3"/>
        </g>
        <text fill="#55606E" font-family="OpenSans, Open Sans" font-size="14" transform="translate(1 54)">
            <tspan x="24" y="15">&lt; $10</tspan>
        </text>
        <g transform="translate(1 85)">
            <use fill="#FFF" xlink:href="#b"/>
            <circle cx="8" cy="9" r="7" stroke="#D4D8E3" stroke-width="2"/>
        </g>
        <text fill="#55606E" font-family="OpenSans, Open Sans" font-size="14" transform="translate(1 85)">
            <tspan x="24" y="15">$10 - $100</tspan>
        </text>
        <g transform="translate(1 147)">
            <use fill="#FFF" xlink:href="#c"/>
            <circle cx="8" cy="9" r="7.5" stroke="#D4D8E3"/>
        </g>
        <text fill="#55606E" font-family="OpenSans, Open Sans" font-size="14" transform="translate(1 147)">
            <tspan x="24" y="15">&gt; $500</tspan>
        </text>
        <g>
            <g transform="translate(1 117)">
                <circle cx="8" cy="8" r="8" fill="url(#d)"/>
                <path stroke="#FFF" stroke-linecap="round" stroke-linejoin="round" stroke-width="1.6" d="M4 9.443L6.364 12 12 6"/>
            </g>
            <text fill="#3E396B" font-family="OpenSans-Semibold, Open Sans" font-size="14" font-weight="500" transform="translate(1 116)">
                <tspan x="24" y="15">$100 - $500</tspan>
            </text>
        </g>
        <g>
            <g transform="translate(1 182)">
                <use fill="#000" filter="url(#e)" xlink:href="#f"/>
                <use fill="#FFF" xlink:href="#f"/>
                <rect width="80" height="26" x=".5" y=".5" stroke="#D4D8E3" rx="4"/>
            </g>
            <text fill="#697782" font-family="OpenSans-Semibold, Open Sans" font-size="12" font-weight="500" transform="translate(1 182)">
                <tspan x="8.262" y="18">Show More</tspan>
            </text>
        </g>
        <g>
            <g transform="translate(144 54)">
                <use fill="#FFF" xlink:href="#g"/>
                <rect width="15" height="15" x=".5" y="1.5" stroke="#D4D8E3" rx="3.2"/>
            </g>
            <text fill="#55606E" font-family="OpenSans, Open Sans" font-size="14" transform="translate(144 54)">
                <tspan x="24" y="15">White</tspan>
            </text>
            <g transform="translate(144 85)">
                <use fill="#FFF" xlink:href="#h"/>
                <rect width="14" height="14" x="1" y="2" stroke="#D4D8E3" stroke-width="2" rx="3.2"/>
            </g>
            <text fill="#55606E" font-family="OpenSans, Open Sans" font-size="14" transform="translate(144 85)">
                <tspan x="24" y="15">Black</tspan>
            </text>
            <g>
                <g transform="translate(144 147)">
                    <use fill="#FFF" xlink:href="#i"/>
                    <rect width="15" height="15" x=".5" y="1.5" stroke="#D4D8E3" rx="3.2"/>
                </g>
                <text fill="#55606E" font-family="OpenSans, Open Sans" font-size="14" transform="translate(144 147)">
                    <tspan x="24" y="15">Gray</tspan>
                </text>
            </g>
            <g>
                <g transform="translate(144 117)">
                    <rect width="16" height="16" fill="url(#d)" rx="3.2"/>
                    <path stroke="#FFF" stroke-linecap="round" stroke-linejoin="round" stroke-width="1.6" d="M4 8.879l2.378 2.436L12.046 5.6"/>
                </g>
                <text fill="#3E396B" font-family="OpenSans-Semibold, Open Sans" font-size="14" font-weight="500" transform="translate(144 116)">
                    <tspan x="24" y="15">Pink</tspan>
                </text>
            </g>
        </g>
        <g>
            <path fill="url(#d)" d="M79.842 6.097l-6.055-.522L71.421 0l-2.366 5.583L63 6.097l4.598 3.983L66.217 16l5.204-3.141L76.625 16l-1.372-5.92zM58.842 6.097l-6.055-.522L50.421 0l-2.366 5.583L42 6.097l4.598 3.983L45.217 16l5.204-3.141L55.625 16l-1.372-5.92zM37.842 6.097l-6.055-.522L29.421 0l-2.366 5.583L21 6.097l4.598 3.983L24.217 16l5.204-3.141L34.625 16l-1.372-5.92zM10.787 5.575L8.421 0 6.055 5.583 0 6.097l4.598 3.983L3.217 16l5.204-3.141L13.625 16l-1.372-5.92 4.59-3.983z" transform="translate(244 87)"/>
            <path fill="#BFC7D8" d="M343.842 93.097l-6.055-.522L335.421 87l-2.366 5.583-6.055.514 4.598 3.983-1.381 5.92 5.204-3.141 5.204 3.141-1.372-5.92z" opacity=".5"/>
            <text fill="#55606E" font-family="OpenSans, Open Sans" font-size="14" transform="translate(244 86)">
                <tspan x="104" y="15">&amp; Up</tspan>
            </text>
            <text fill="#55606E" font-family="OpenSans, Open Sans" font-size="14" opacity=".4" transform="translate(244 86)">
                <tspan x="142" y="15">(1 250)</tspan>
            </text>
            <g>
                <g fill="url(#d)" transform="translate(244 55)">
                    <path d="M79.842 6.097l-6.055-.522L71.421 0l-2.366 5.583L63 6.097l4.598 3.983L66.217 16l5.204-3.141L76.625 16l-1.372-5.92zM99.842 6.097l-6.055-.522L91.421 0l-2.366 5.583L83 6.097l4.598 3.983L86.217 16l5.204-3.141L96.625 16l-1.372-5.92zM58.842 6.097l-6.055-.522L50.421 0l-2.366 5.583L42 6.097l4.598 3.983L45.217 16l5.204-3.141L55.625 16l-1.372-5.92zM37.842 6.097l-6.055-.522L29.421 0l-2.366 5.583L21 6.097l4.598 3.983L24.217 16l5.204-3.141L34.625 16l-1.372-5.92zM16.842 6.097l-6.055-.522L8.421 0 6.055 5.583 0 6.097l4.598 3.983L3.217 16l5.204-3.141L13.625 16l-1.372-5.92z"/>
                </g>
                <text fill="#55606E" font-family="OpenSans, Open Sans" font-size="14" opacity=".4" transform="translate(244 54)">
                    <tspan x="104" y="15">(345)</tspan>
                </text>
            </g>
            <g>
                <path fill="url(#d)" d="M58.842 6.097l-6.055-.522L50.421 0l-2.366 5.583L42 6.097l4.598 3.983L45.217 16l5.204-3.141L55.625 16l-1.372-5.92zM37.842 6.097l-6.055-.522L29.421 0l-2.366 5.583L21 6.097l4.598 3.983L24.217 16l5.204-3.141L34.625 16l-1.372-5.92zM16.842 6.097l-6.055-.522L8.421 0 6.055 5.583 0 6.097l4.598 3.983L3.217 16l5.204-3.141L13.625 16l-1.372-5.92z" transform="translate(244 119)"/>
                <path fill="#BFC7D8" d="M343.842 125.097l-6.055-.522-2.366-5.575-2.366 5.583-6.055.514 4.598 3.983-1.381 5.92 5.204-3.141 5.204 3.141-1.372-5.92zM323.842 125.097l-6.055-.522-2.366-5.575-2.366 5.583-6.055.514 4.598 3.983-1.381 5.92 5.204-3.141 5.204 3.141-1.372-5.92z" opacity=".5"/>
                <text fill="#55606E" font-family="OpenSans, Open Sans" font-size="14" transform="translate(244 118)">
                    <tspan x="104" y="15">&amp; Up</tspan>
                </text>
                <text fill="#55606E" font-family="OpenSans, Open Sans" font-size="14" opacity=".4" transform="translate(244 118)">
                    <tspan x="142" y="15">(3 761)</tspan>
                </text>
            </g>
            <g>
                <path fill="url(#d)" d="M37.842 6.097l-6.055-.522L29.421 0l-2.366 5.583L21 6.097l4.598 3.983L24.217 16l5.204-3.141L34.625 16l-1.372-5.92zM16.842 6.097l-6.055-.522L8.421 0 6.055 5.583 0 6.097l4.598 3.983L3.217 16l5.204-3.141L13.625 16l-1.372-5.92z" transform="translate(244 151)"/>
                <path fill="#BFC7D8" d="M343.842 157.097l-6.055-.522-2.366-5.575-2.366 5.583-6.055.514 4.598 3.983-1.381 5.92 5.204-3.141 5.204 3.141-1.372-5.92zM323.842 157.097l-6.055-.522-2.366-5.575-2.366 5.583-6.055.514 4.598 3.983-1.381 5.92 5.204-3.141 5.204 3.141-1.372-5.92zM302.842 157.097l-6.055-.522-2.366-5.575-2.366 5.583-6.055.514 4.598 3.983-1.381 5.92 5.204-3.141 5.204 3.141-1.372-5.92z" opacity=".5"/>
                <text fill="#55606E" font-family="OpenSans, Open Sans" font-size="14" transform="translate(244 150)">
                    <tspan x="104" y="15">&amp; Up</tspan>
                </text>
                <text fill="#55606E" font-family="OpenSans, Open Sans" font-size="14" opacity=".4" transform="translate(244 150)">
                    <tspan x="142" y="15">(4 956)</tspan>
                </text>
            </g>
            <g>
                <path fill="url(#d)" d="M16.842 6.097l-6.055-.522L8.421 0 6.055 5.583 0 6.097l4.598 3.983L3.217 16l5.204-3.141L13.625 16l-1.372-5.92z" transform="translate(244 183)"/>
                <path fill="#BFC7D8" d="M343.842 189.097l-6.055-.522-2.366-5.575-2.366 5.583-6.055.514 4.598 3.983-1.381 5.92 5.204-3.141 5.204 3.141-1.372-5.92zM323.842 189.097l-6.055-.522-2.366-5.575-2.366 5.583-6.055.514 4.598 3.983-1.381 5.92 5.204-3.141 5.204 3.141-1.372-5.92zM302.842 189.097l-6.055-.522-2.366-5.575-2.366 5.583-6.055.514 4.598 3.983-1.381 5.92 5.204-3.141 5.204 3.141-1.372-5.92zM281.842 189.097l-6.055-.522-2.366-5.575-2.366 5.583-6.055.514 4.598 3.983-1.381 5.92 5.204-3.141 5.204 3.141-1.372-5.92z" opacity=".5"/>
                <text fill="#3E396B" font-family="OpenSans-Semibold, Open Sans" font-size="14" font-weight="500" transform="translate(244 182)">
                    <tspan x="104" y="15">&amp; Up</tspan>
                </text>
                <text fill="#2751AF" font-family="OpenSans-Semibold, Open Sans" font-size="14" font-weight="500" opacity=".4" transform="translate(244 182)">
                    <tspan x="142" y="15">(6 168)</tspan>
                </text>
            </g>
        </g>
        <g>
            <path fill="#D4D8E3" d="M1 243h430v2H1z"/>
            <path fill="url(#j)" d="M50 10h207v4H50z" transform="translate(1 232)"/>
            <g transform="translate(1 232)">
                <use fill="#000" filter="url(#k)" xlink:href="#l"/>
                <use fill="#FFF" xlink:href="#l"/>
                <circle cx="51" cy="12" r="8.625" stroke="#D4D8E3" stroke-width=".75"/>
            </g>
            <text fill="#697782" font-family="OpenSans, Open Sans" font-size="14" transform="translate(1 232)">
                <tspan x="42.495" y="45">10</tspan>
            </text>
            <text fill="#3E396B" font-family="OpenSans-Semibold, Open Sans" font-size="14" font-weight="500" transform="translate(1 232)">
                <tspan x="238" y="45">100</tspan>
            </text>
            <g transform="translate(1 232)">
                <use fill="#000" filter="url(#m)" xlink:href="#n"/>
                <use fill="#FFF" xlink:href="#n"/>
                <circle cx="251" cy="12" r="11.5" stroke="#D4D8E3"/>
            </g>
        </g>
    </g>
</svg>
