<svg id="android" viewBox="0 0 90 90" width="100%" height="100%" xmlns="http://www.w3.org/2000/svg"><title>InstantSearch Android</title><path d="M25.242 35.442a3.326 3.326 0 0 0-3.316 3.333l.002 13.956a3.327 3.327 0 0 0 3.316 3.336 3.324 3.324 0 0 0 3.316-3.335V38.773a3.326 3.326 0 0 0-3.318-3.331zm26.74-12.533l2.315-4.248a.459.459 0 1 0-.805-.445l-2.34 4.29a15.879 15.879 0 0 0-6.496-1.368 15.852 15.852 0 0 0-6.483 1.364l-2.34-4.281a.455.455 0 0 0-.622-.184.458.458 0 0 0-.183.626l2.315 4.244c-4.55 2.359-7.623 6.85-7.62 12.005l29.87-.003c0-5.155-3.068-9.636-7.61-12zm-14.12 6.564a1.256 1.256 0 0 1-1.248-1.258c0-.691.56-1.26 1.25-1.26a1.26 1.26 0 0 1-.002 2.518zm13.6-.002c-.69 0-1.253-.561-1.251-1.259 0-.69.56-1.258 1.253-1.26.686.001 1.25.57 1.25 1.261 0 .695-.56 1.258-1.251 1.258zM29.85 57.699a3.542 3.542 0 0 0 3.538 3.558h2.409l.003 7.385c0 1.838 1.485 3.333 3.313 3.333a3.325 3.325 0 0 0 3.315-3.335v-7.384h4.477v7.384c.002 1.839 1.49 3.335 3.317 3.332a3.327 3.327 0 0 0 3.317-3.335l-.002-7.382 2.418-.001c1.951 0 3.538-1.593 3.538-3.558l-.003-21.63-29.645.005.005 21.628zm34.235-22.261c-1.83-.002-3.315 1.493-3.314 3.333v13.957a3.323 3.323 0 0 0 3.318 3.333c1.83 0 3.313-1.49 3.314-3.334L67.4 38.77a3.323 3.323 0 0 0-3.315-3.333z" fill="#FFF" fill-rule="evenodd"></path></svg>